<svg width="815" height="995" viewBox="0 0 815 995" fill="none" xmlns="http://www.w3.org/2000/svg">
<path d="M234.657 462.431C234.657 462.431 234.444 428.129 234.444 385.846C234.444 343.563 234.444 309.322 234.718 309.322C234.992 309.322 234.992 343.593 234.992 385.846C234.992 428.099 234.809 462.431 234.657 462.431Z" fill="#E0E0E0"/>
<path d="M228.747 315.78C227.179 316.053 225.584 316.145 223.995 316.054C222.395 316.146 220.791 316.054 219.212 315.78C220.791 315.506 222.395 315.414 223.995 315.506C225.584 315.415 227.179 315.507 228.747 315.78Z" fill="#E0E0E0"/>
<path d="M228.747 325.864C227.179 326.136 225.584 326.228 223.995 326.138C222.395 326.229 220.791 326.137 219.212 325.864C220.791 325.59 222.395 325.498 223.995 325.589C225.584 325.499 227.179 325.591 228.747 325.864Z" fill="#E0E0E0"/>
<path d="M228.747 335.947C227.179 336.22 225.584 336.312 223.995 336.221C222.395 336.313 220.791 336.221 219.212 335.947C220.791 335.673 222.395 335.581 223.995 335.673C225.584 335.582 227.179 335.674 228.747 335.947Z" fill="#E0E0E0"/>
<path d="M228.747 346.03C227.179 346.303 225.584 346.395 223.995 346.305C222.395 346.396 220.791 346.304 219.212 346.03C220.791 345.757 222.395 345.665 223.995 345.756C225.584 345.666 227.179 345.758 228.747 346.03Z" fill="#E0E0E0"/>
<path d="M228.747 356.114C227.179 356.387 225.584 356.479 223.995 356.388C222.395 356.48 220.791 356.388 219.212 356.114C220.791 355.84 222.395 355.748 223.995 355.84C225.584 355.749 227.179 355.841 228.747 356.114Z" fill="#E0E0E0"/>
<path d="M228.747 366.197C227.181 366.49 225.586 366.592 223.995 366.502C222.394 366.593 220.788 366.491 219.212 366.197C220.791 365.923 222.395 365.831 223.995 365.923C225.584 365.832 227.179 365.924 228.747 366.197Z" fill="#E0E0E0"/>
<path d="M228.747 376.311C227.179 376.584 225.584 376.676 223.995 376.585C222.395 376.677 220.791 376.585 219.212 376.311C220.788 376.017 222.394 375.915 223.995 376.006C225.586 375.916 227.181 376.018 228.747 376.311Z" fill="#E0E0E0"/>
<path d="M228.747 386.273C227.179 386.546 225.584 386.638 223.995 386.547C222.395 386.639 220.791 386.547 219.212 386.273C220.791 385.999 222.395 385.907 223.995 385.998C225.584 385.908 227.179 386 228.747 386.273Z" fill="#E0E0E0"/>
<path d="M228.747 396.478C227.179 396.751 225.584 396.843 223.995 396.752C222.395 396.844 220.791 396.752 219.212 396.478C220.791 396.204 222.395 396.112 223.995 396.204C225.584 396.113 227.179 396.205 228.747 396.478Z" fill="#E0E0E0"/>
<path d="M228.747 406.561C227.179 406.834 225.584 406.926 223.995 406.835C222.395 406.927 220.791 406.835 219.212 406.561C220.791 406.287 222.395 406.195 223.995 406.287C225.584 406.196 227.179 406.288 228.747 406.561Z" fill="#E0E0E0"/>
<path d="M228.747 416.736C227.179 417.009 225.584 417.101 223.995 417.01C222.395 417.102 220.791 417.01 219.212 416.736C220.791 416.462 222.395 416.37 223.995 416.462C225.584 416.371 227.179 416.463 228.747 416.736Z" fill="#E0E0E0"/>
<path d="M228.747 426.728C227.179 427.001 225.584 427.093 223.995 427.002C222.395 427.094 220.791 427.002 219.212 426.728C220.791 426.454 222.395 426.362 223.995 426.454C225.584 426.363 227.179 426.455 228.747 426.728Z" fill="#E0E0E0"/>
<path d="M228.747 436.811C227.179 437.084 225.584 437.176 223.995 437.086C222.395 437.177 220.791 437.085 219.212 436.811C220.791 436.538 222.395 436.446 223.995 436.537C225.584 436.447 227.179 436.539 228.747 436.811Z" fill="#E0E0E0"/>
<path d="M228.747 446.895C227.179 447.168 225.584 447.26 223.995 447.169C222.395 447.261 220.791 447.169 219.212 446.895C220.791 446.621 222.395 446.529 223.995 446.621C225.584 446.53 227.179 446.622 228.747 446.895Z" fill="#E0E0E0"/>
<path d="M228.747 456.978C227.179 457.251 225.584 457.343 223.995 457.252C222.395 457.344 220.791 457.252 219.212 456.978C220.791 456.704 222.395 456.612 223.995 456.704C225.584 456.613 227.179 456.705 228.747 456.978Z" fill="#E0E0E0"/>
<path d="M266.918 315.201C266.918 315.354 261.373 315.476 254.55 315.476C247.726 315.476 242.212 315.476 242.212 315.201C242.212 314.927 247.726 314.927 254.55 314.927C261.373 314.927 266.918 315.049 266.918 315.201Z" fill="#E0E0E0"/>
<path d="M266.918 456.978C266.918 457.131 261.373 457.252 254.55 457.252C247.726 457.252 242.212 457.252 242.212 456.978C242.212 456.704 247.726 456.704 254.55 456.704C261.373 456.704 266.918 456.826 266.918 456.978Z" fill="#E0E0E0"/>
<path d="M301.463 335.947C301.463 335.947 291.106 336.221 278.342 336.221C265.578 336.221 255.22 336.221 255.22 335.947C255.22 335.673 265.578 335.673 278.342 335.673C291.106 335.673 301.463 335.795 301.463 335.947Z" fill="#E0E0E0"/>
<path d="M354.805 335.947C354.805 335.947 344.447 336.221 331.683 336.221C318.919 336.221 308.562 336.221 308.562 335.947C308.562 335.673 318.919 335.673 331.683 335.673C344.447 335.673 354.805 335.795 354.805 335.947Z" fill="#E0E0E0"/>
<path d="M334.364 346.031C334.364 346.031 319.132 346.305 300.306 346.305C281.479 346.305 266.217 346.305 266.217 346.031C266.217 345.756 281.449 345.756 300.306 345.756C319.163 345.756 334.364 345.878 334.364 346.031Z" fill="#E0E0E0"/>
<path d="M334.364 356.114C334.364 356.114 319.132 356.388 300.306 356.388C281.479 356.388 266.217 356.388 266.217 356.114C266.217 355.84 281.449 355.84 300.306 355.84C319.163 355.84 334.364 355.961 334.364 356.114Z" fill="#E0E0E0"/>
<path d="M381.278 386.272C381.278 386.272 366.046 386.547 347.219 386.547C328.393 386.547 313.131 386.547 313.131 386.272C313.131 385.998 328.363 385.998 347.219 385.998C366.076 385.998 381.278 386.272 381.278 386.272Z" fill="#E0E0E0"/>
<path d="M361.05 366.197C361.05 366.197 345.818 366.502 326.961 366.502C308.105 366.502 292.903 366.35 292.903 366.197C292.903 366.045 308.135 365.923 326.961 365.923C345.788 365.923 361.05 366.045 361.05 366.197Z" fill="#E0E0E0"/>
<path d="M444.337 366.197C444.337 366.197 429.105 366.502 410.248 366.502C391.391 366.502 376.16 366.35 376.16 366.197C376.16 366.045 391.391 365.923 410.248 365.923C429.105 365.923 444.337 366.045 444.337 366.197Z" fill="#E0E0E0"/>
<path d="M415.366 346.031C415.366 346.031 400.134 346.305 381.278 346.305C362.421 346.305 347.219 346.305 347.219 346.031C347.219 345.756 362.451 345.756 381.278 345.756C400.104 345.756 415.366 345.878 415.366 346.031Z" fill="#E0E0E0"/>
<path d="M462.432 386.272C462.432 386.272 447.201 386.547 428.374 386.547C409.548 386.547 394.286 386.547 394.286 386.272C394.286 385.998 409.517 385.998 428.374 385.998C447.231 385.998 462.432 386.272 462.432 386.272Z" fill="#E0E0E0"/>
<path d="M453.05 356.114C453.05 356.114 429.349 356.388 400.135 356.388C370.92 356.388 347.159 356.266 347.159 356.114C347.159 355.961 370.829 355.84 400.074 355.84C429.319 355.84 453.05 355.961 453.05 356.114Z" fill="#E0E0E0"/>
<path d="M266.918 325.864C266.918 326.016 261.373 326.138 254.55 326.138C247.726 326.138 242.212 326.138 242.212 325.864C242.212 325.589 247.726 325.589 254.55 325.589C261.373 325.589 266.918 325.711 266.918 325.864Z" fill="#E0E0E0"/>
<path d="M266.918 446.895C266.918 447.047 261.373 447.169 254.55 447.169C247.726 447.169 242.212 447.169 242.212 446.895C242.212 446.621 247.726 446.621 254.55 446.621C261.373 446.621 266.918 446.742 266.918 446.895Z" fill="#E0E0E0"/>
<path d="M279.164 366.197C279.164 366.197 273.62 366.502 266.796 366.502C259.972 366.502 254.611 366.35 254.611 366.197C254.611 366.045 260.124 365.923 266.796 365.923C273.467 365.923 279.164 366.045 279.164 366.197Z" fill="#E0E0E0"/>
<path d="M477.268 366.197C477.268 366.197 471.724 366.502 464.9 366.502C458.076 366.502 452.532 366.35 452.532 366.197C452.532 366.045 458.076 365.923 464.9 365.923C471.724 365.923 477.268 366.045 477.268 366.197Z" fill="#E0E0E0"/>
<path d="M301.463 406.5C301.463 406.653 291.106 406.774 278.342 406.774C265.578 406.774 255.22 406.774 255.22 406.5C255.22 406.226 265.578 406.226 278.342 406.226C291.106 406.226 301.463 406.348 301.463 406.5Z" fill="#E0E0E0"/>
<path d="M354.805 406.5C354.805 406.653 344.447 406.774 331.683 406.774C318.919 406.774 308.562 406.774 308.562 406.5C308.562 406.226 318.919 406.226 331.683 406.226C344.447 406.226 354.805 406.348 354.805 406.5Z" fill="#E0E0E0"/>
<path d="M334.364 416.736C334.364 416.889 319.132 417.01 300.306 417.01C281.479 417.01 266.217 417.01 266.217 416.736C266.217 416.462 281.449 416.462 300.306 416.462C319.163 416.462 334.364 416.432 334.364 416.736Z" fill="#E0E0E0"/>
<path d="M334.364 426.667C334.364 426.82 319.132 426.941 300.306 426.941C281.479 426.941 266.217 426.941 266.217 426.667C266.217 426.393 281.449 426.393 300.306 426.393C319.163 426.393 334.364 426.515 334.364 426.667Z" fill="#E0E0E0"/>
<path d="M415.366 416.736C415.366 416.889 400.135 417.01 381.278 417.01C362.421 417.01 347.159 416.736 347.159 416.736C347.159 416.736 362.39 416.462 381.217 416.462C400.043 416.462 415.366 416.432 415.366 416.736Z" fill="#E0E0E0"/>
<path d="M453.049 426.667C453.049 426.82 429.349 426.941 400.134 426.941C370.92 426.941 347.219 426.941 347.219 426.667C347.219 426.393 370.89 426.393 400.134 426.393C429.379 426.393 453.049 426.515 453.049 426.667Z" fill="#E0E0E0"/>
<path d="M477.268 436.75C477.268 436.903 471.724 437.025 464.9 437.025C458.076 437.025 452.532 437.025 452.532 436.75C452.532 436.476 458.076 436.476 464.9 436.476C471.724 436.476 477.268 436.598 477.268 436.75Z" fill="#E0E0E0"/>
<path d="M453.724 59.2338C453.197 59.3318 452.244 56.7344 451.56 53.4331C450.876 50.1317 450.819 47.4289 451.338 47.3612C451.857 47.2934 452.818 49.8607 453.319 53.0862C453.82 56.3116 454.25 59.1358 453.724 59.2338Z" fill="#263238"/>
<path d="M472.195 53.6378C471.7 53.7434 470.656 50.9642 470.337 47.3982C470.018 43.8322 470.646 41.0693 471.122 41.1833C471.597 41.2972 471.954 44.0077 472.238 47.4375C472.523 50.8672 472.753 53.5474 472.195 53.6378Z" fill="#263238"/>
<path d="M501.798 49.4278C502.237 49.6931 501.466 51.6533 500.052 53.7796C498.637 55.9059 497.1 57.4265 496.636 57.1233C496.172 56.8202 496.968 54.8978 498.382 52.7715C499.797 50.6452 501.366 49.1322 501.798 49.4278Z" fill="#263238"/>
<path d="M519.925 62.4782C520.187 62.925 518.52 64.2865 516.141 65.5414C513.762 66.7964 511.662 67.446 511.4 66.9991C511.139 66.5523 512.845 65.1681 515.192 63.9055C517.539 62.643 519.671 62.001 519.925 62.4782Z" fill="#263238"/>
<path d="M544.343 115.741C544.22 116.256 541.612 116.367 538.355 115.971C535.097 115.575 532.48 114.884 532.54 114.354C532.6 113.824 535.264 113.758 538.529 114.124C541.794 114.49 544.396 115.241 544.343 115.741Z" fill="#263238"/>
<path d="M541.682 138.186C541.383 138.594 538.848 137.283 536.053 135.237C533.258 133.19 531.245 131.236 531.547 130.956C531.849 130.676 534.381 131.859 537.176 133.905C539.972 135.951 542.013 137.785 541.682 138.186Z" fill="#263238"/>
<path d="M534.949 156.358C534.84 156.812 531.471 155.205 528.457 152.114C525.443 149.023 523.942 145.91 524.403 145.668C524.863 145.426 526.967 147.979 529.866 150.851C532.765 153.722 535.255 155.919 534.949 156.358Z" fill="#263238"/>
<path d="M190.816 335.843C180.024 333.293 170 328.192 161.587 320.966C153.174 313.741 146.617 304.603 142.466 294.32C138.315 284.036 136.691 272.907 137.731 261.866C138.771 250.825 142.444 240.194 148.442 230.866C135.068 204.759 145.395 169.087 170.589 154.129C175.37 151.816 179.859 148.942 183.962 145.569C191.09 138.593 192.37 127.778 196.147 118.517C199.18 110.96 203.977 104.238 210.139 98.9128C216.3 93.588 223.646 89.8153 231.564 87.9097C239.481 86.0042 247.739 86.0213 255.649 87.9596C263.558 89.8978 270.889 93.701 277.028 99.0512C291.65 91.8009 306.76 84.5506 323.028 83.2711C339.295 81.9917 357.177 88.0844 365.463 102.128C370.002 109.866 371.556 119.584 378.258 125.554C384.96 131.525 395.074 131.952 403.085 136.186C418.317 144.289 422.734 164.03 422.765 181.303C422.795 198.575 420.267 216.823 427.883 232.298C431.843 240.371 438.362 247.195 441.073 255.755C442.593 260.523 442.847 265.605 441.811 270.501C440.775 275.397 438.485 279.94 435.164 283.684C431.844 287.428 427.608 290.245 422.87 291.859C418.133 293.473 413.058 293.828 408.142 292.89C414.753 308.122 412.224 326.126 403.908 340.383C395.591 354.639 382.066 365.271 367.352 372.765C356.781 378.127 344.931 382.087 333.233 380.29C322.357 378.645 312.761 372.217 304.719 364.723C286.469 347.577 274.697 324.657 271.392 299.836" fill="#263238"/>
<path d="M223.574 315C212.782 312.45 202.758 307.349 194.345 300.123C185.932 292.898 179.375 283.76 175.224 273.477C171.073 263.193 169.449 252.064 170.489 241.023C171.529 229.982 175.202 219.351 181.2 210.023C167.826 183.916 178.153 148.244 203.347 133.286C208.128 130.973 212.617 128.099 216.72 124.726C223.849 117.75 225.128 106.935 228.905 97.6743C231.938 90.1167 236.735 83.3946 242.897 78.0698C249.058 72.745 256.404 68.9722 264.322 67.0667C272.239 65.1612 280.497 65.1783 288.407 67.1165C296.316 69.0548 303.647 72.858 309.786 78.2082C324.408 70.9579 339.518 63.7076 355.786 62.4281C372.053 61.1487 389.935 67.2414 398.221 81.285C402.76 89.0227 404.314 98.7406 411.016 104.711C417.718 110.682 427.832 111.109 435.844 115.343C451.075 123.446 455.492 143.187 455.523 160.459C455.553 177.732 453.025 195.98 460.641 211.455C464.601 219.528 471.12 226.352 473.831 234.912C475.351 239.68 475.605 244.762 474.569 249.658C473.533 254.554 471.243 259.097 467.922 262.841C464.602 266.585 460.366 269.402 455.628 271.016C450.891 272.63 445.816 272.985 440.9 272.047C447.511 287.279 444.983 305.283 436.666 319.54C428.349 333.796 414.824 344.428 400.11 351.922C389.539 357.284 377.689 361.244 365.991 359.447C355.115 357.802 345.519 351.374 337.477 343.88C319.227 326.734 307.455 303.814 304.15 278.993" fill="#263238"/>
<path d="M231.302 130.977C226.818 130.499 222.317 131.725 218.694 134.411C215.071 137.098 212.591 141.047 211.745 145.477L171.015 385.255C165.41 413.403 203.032 438.018 233.221 443.775C263.685 449.624 267.889 434.941 274.012 408.346C284.248 363.9 287.812 347.145 287.781 347.42C287.751 347.694 327.384 349.247 346.088 300.902C355.228 276.866 362.813 235.802 367.809 202.018C372.318 171.554 360.284 130.52 329.699 127.321L231.302 130.977Z" fill="#FFBE9D"/>
<path d="M349.835 231.933C349.489 233.609 348.503 235.084 347.087 236.045C345.671 237.007 343.936 237.378 342.25 237.081C341.422 236.97 340.625 236.694 339.905 236.27C339.185 235.846 338.557 235.283 338.058 234.614C337.559 233.944 337.198 233.181 336.997 232.371C336.796 231.56 336.759 230.717 336.888 229.892C337.228 228.216 338.207 226.739 339.617 225.772C341.027 224.805 342.758 224.426 344.443 224.713C345.273 224.829 346.072 225.108 346.794 225.534C347.515 225.961 348.145 226.526 348.647 227.197C349.148 227.869 349.511 228.633 349.715 229.446C349.919 230.259 349.96 231.104 349.835 231.933Z" fill="#263238"/>
<path d="M354.435 225.414C353.461 226.084 349.379 221.423 342.463 219.991C335.548 218.559 329.76 220.905 329.181 219.991C328.907 219.534 330.034 218.194 332.593 216.945C336.02 215.506 339.809 215.166 343.438 215.97C347.027 216.722 350.283 218.6 352.73 221.332C354.496 223.494 354.892 225.17 354.435 225.414Z" fill="#263238"/>
<path d="M281.049 217.097C280.895 217.952 280.573 218.769 280.101 219.498C279.629 220.228 279.017 220.856 278.299 221.347C277.582 221.837 276.774 222.18 275.923 222.355C275.072 222.53 274.194 222.535 273.342 222.367C272.512 222.26 271.713 221.987 270.991 221.564C270.269 221.141 269.639 220.578 269.139 219.908C268.639 219.237 268.279 218.473 268.08 217.66C267.88 216.848 267.847 216.004 267.98 215.178C268.312 213.5 269.291 212.021 270.704 211.057C272.117 210.094 273.852 209.725 275.535 210.03C276.363 210.127 277.163 210.389 277.889 210.798C278.616 211.207 279.254 211.756 279.766 212.413C280.279 213.07 280.657 213.823 280.877 214.627C281.097 215.431 281.155 216.27 281.049 217.097Z" fill="#263238"/>
<path d="M286.289 210.182C285.314 210.852 281.232 206.222 274.316 204.759C267.401 203.297 261.613 205.673 261.034 204.759C260.76 204.302 261.887 202.962 264.446 201.713C267.878 200.294 271.661 199.954 275.291 200.738C278.88 201.49 282.136 203.368 284.583 206.1C286.349 208.049 286.776 209.725 286.289 210.182Z" fill="#263238"/>
<path d="M291.183 287.447C295.063 287.094 298.971 287.217 302.82 287.813C304.648 287.996 306.385 288.026 306.933 286.869C307.494 285.084 307.494 283.17 306.933 281.385C306.171 276.785 305.41 271.942 304.587 266.854C301.541 246.2 299.53 229.354 300.353 229.262C301.175 229.171 304.435 245.774 307.603 266.428L309.705 280.989C310.366 283.356 310.172 285.88 309.157 288.118C308.769 288.683 308.257 289.152 307.661 289.49C307.064 289.828 306.399 290.025 305.714 290.067C304.694 290.124 303.671 290.053 302.668 289.854C298.754 289.537 294.895 288.729 291.183 287.447Z" fill="#263238"/>
<path d="M287.781 347.267C264.16 342.621 242.29 331.517 224.6 315.189C224.6 315.189 233.983 354.091 285.07 360.093L287.781 347.267Z" fill="#E5A380"/>
<path d="M275.351 308.476C276.387 308.038 278.989 315.121 286.896 317.955C294.803 320.788 302.063 317.225 302.494 318.194C302.749 318.601 301.298 320.184 298.157 321.447C294.015 323.011 289.456 323.076 285.271 321.632C281.265 320.224 277.958 317.322 276.043 313.533C274.731 310.707 274.918 308.747 275.351 308.476Z" fill="#263238"/>
<path d="M300.032 195.624C298.331 198.188 288.468 194.348 276.139 192.868C263.81 191.387 253.501 192.252 252.399 189.474C251.983 188.089 254.264 185.861 258.842 184.108C264.825 181.962 271.231 181.304 277.517 182.188C283.822 182.949 289.861 185.2 295.144 188.759C299.098 191.66 300.792 194.362 300.032 195.624Z" fill="#263238"/>
<path d="M361.777 213.82C359.868 215.454 354.291 212.148 347.441 210.552C340.592 208.955 334.192 209.031 333.256 206.751C332.844 205.611 334.191 203.863 337.186 202.571C341.145 201.102 345.445 200.863 349.538 201.885C353.63 202.907 357.331 205.144 360.167 208.309C362.226 210.818 362.6 213.022 361.777 213.82Z" fill="#263238"/>
<path d="M249.71 116.704C243.337 112.127 235.795 108.779 227.593 106.886C219.39 104.993 210.72 104.601 202.169 105.734C185.192 108.53 169.759 119.862 167.117 133.717C165.405 142.723 168.621 152.643 162.546 160.462C156.472 168.28 145.015 170.241 136.196 175.32C129.353 179.359 124.249 185.128 121.699 191.704C119.149 198.28 119.301 205.284 122.13 211.597C127.326 222.316 140.308 230.793 139.732 242.435C139.196 253.4 126.944 261.818 122.533 272.338C117.791 283.936 123.802 296.712 133.899 305.314C143.995 313.916 153.093 332.979 166.349 338.118C176.698 342.128 192.024 344.043 204.493 338.696C218.005 331.917 228.081 321.215 232.652 308.785C234.162 303.228 234.215 297.516 232.809 292.04C231.402 286.564 228.569 281.453 224.504 277.058C217.689 269.27 207.55 262.358 207.037 252.701C206.299 237.461 229.431 226.899 230.378 211.786C230.844 203.985 225.085 197.033 220.657 190.368C216.229 183.703 212.618 175.297 217.064 168.234C222.812 159.102 238.226 157.669 248.178 151.365C252.325 148.722 255.553 145.208 257.506 141.214C259.46 137.22 260.061 132.901 259.245 128.736C258.205 124.56 255.805 120.743 252.298 117.692C248.792 114.641 244.312 112.47 239.335 111.41" fill="#263238"/>
<path d="M306.874 119.883C302.002 113.732 295.669 108.442 288.301 104.37C280.934 100.299 272.705 97.5408 264.171 96.2834C247.078 94.3111 229.128 100.971 222.783 113.568C218.665 121.758 219.033 132.18 211.046 138.03C203.059 143.881 191.504 142.621 181.629 145.084C173.94 147.089 167.448 151.235 163.191 156.858C158.934 162.481 157.158 169.258 158.145 176.106C160.198 187.839 170.354 199.554 166.604 210.591C163.078 220.987 148.986 225.718 141.856 234.624C134.113 244.474 136.385 258.41 143.733 269.453C151.08 280.496 154.595 301.324 165.931 309.905C174.781 316.602 188.993 322.65 202.451 320.932C217.304 318.124 229.931 310.598 237.739 299.901C240.716 294.972 242.336 289.494 242.487 283.843C242.638 278.191 241.316 272.499 238.614 267.156C234.199 257.796 226.347 248.367 228.505 238.94C231.979 224.083 244.426 220.228 249.486 205.955C252.076 198.581 261.142 190.366 258.714 182.741C256.286 175.117 255.121 166.042 261.335 160.471C269.37 153.268 284.585 156.121 295.885 152.792C300.598 151.388 304.667 148.896 307.642 145.592C310.616 142.288 312.381 138.3 312.739 134.07C312.886 129.77 311.625 125.44 309.091 121.544C306.557 117.647 302.845 114.329 298.351 111.945" fill="#263238"/>
<path d="M305.498 81.3237C302.701 73.9933 298.25 67.044 292.447 60.9463C286.644 54.8486 279.624 49.7449 271.863 45.9809C256.154 38.9626 237.031 39.9191 227.194 50.0269C220.804 56.6009 218.024 66.6513 208.647 69.8308C199.271 73.0103 188.629 68.3358 178.47 67.7168C170.534 67.3185 163.097 69.3213 157.346 73.4052C151.596 77.4892 147.865 83.4186 146.748 90.2464C145.18 102.055 151.345 116.28 144.452 125.68C137.964 134.535 123.102 134.812 113.625 141.163C103.28 148.231 101.258 162.205 104.947 174.946C108.636 187.686 105.728 208.609 113.961 220.199C120.389 229.246 132.126 239.287 145.478 241.693C160.489 243.478 174.793 240.096 185.456 232.24C189.776 228.434 192.967 223.696 194.81 218.351C196.653 213.006 197.103 207.18 196.131 201.272C194.734 191.018 190.079 179.664 194.971 171.322C202.749 158.196 215.779 158.26 224.895 146.168C229.581 139.914 240.698 134.803 240.673 126.801C240.649 118.799 242.266 109.794 249.867 106.349C259.695 101.893 273.349 109.187 285.127 109.408C290.044 109.486 294.674 108.332 298.504 106.075C302.334 103.817 305.216 100.544 306.829 96.6177C308.261 92.5602 308.36 88.0521 307.114 83.5741C305.869 79.0961 303.325 74.8162 299.756 71.1908" fill="#263238"/>
<path d="M387.349 149.187C391.063 143.12 393.43 136.325 394.29 129.263C395.149 122.201 394.481 115.037 392.331 108.256C387.528 94.8941 374.542 84.3915 360.636 84.8212C351.597 85.1053 342.262 89.59 333.858 86.0842C325.453 82.5784 322.14 73.5755 316.088 67.3124C311.297 62.4712 305.021 59.3755 298.263 58.52C291.506 57.6644 284.656 59.0983 278.809 62.5926C268.93 68.8463 262.195 81.048 250.71 82.7544C239.894 84.3658 230.152 75.9198 219.3 74.2797C207.353 72.5707 195.555 79.8753 188.348 89.7412C181.14 99.6071 163.553 110.612 160.124 122.414C157.449 131.628 157.433 144.52 164.191 153.718C172.478 163.501 184.196 169.74 196.939 171.154C202.57 171.35 208.178 170.325 213.376 168.151C218.575 165.977 223.242 162.704 227.057 158.557C233.866 151.528 239.412 141.943 248.819 139.718C263.672 136.265 276.838 153.208 291.772 151.157C299.478 150.079 305.594 144.069 311.591 139.202C317.589 134.334 325.393 129.809 332.858 132.124C342.51 135.118 345.788 147.456 353.177 154.416C356.273 157.313 360.11 159.296 364.263 160.147C368.417 160.997 372.725 160.682 376.71 159.235C380.678 157.604 384.129 154.927 386.695 151.489C389.261 148.051 390.845 143.981 391.28 139.713" fill="#263238"/>
<path d="M296.042 97.4272C294.426 90.4992 291.34 83.9994 286.993 78.3679C282.646 72.7365 277.14 68.1047 270.847 64.7864C258.044 58.6461 241.424 60.2869 231.825 70.3575C225.589 76.907 222.091 86.6556 213.646 90.061C205.201 93.4663 196.519 89.3833 187.813 89.1734C181.002 89.0913 174.36 91.2942 168.948 95.4302C163.536 99.5663 159.666 105.397 157.957 111.99C155.315 123.38 159.088 136.797 152.108 146.077C145.539 154.819 132.672 155.646 123.795 162.099C114.088 169.271 110.818 182.756 112.614 194.842C114.41 206.927 109.616 227.113 115.463 237.923C120.028 246.361 129.069 255.551 140.339 257.355C153.109 258.501 165.833 254.715 175.899 246.773C180.046 242.958 183.319 238.291 185.493 233.093C187.668 227.894 188.693 222.287 188.497 216.656C188.409 206.869 185.627 196.151 190.762 187.961C198.913 175.073 220.183 177.891 229.376 165.944C234.105 159.766 234.24 151.192 235.092 143.515C235.944 135.838 238.323 127.136 245.264 123.542C254.238 118.896 265.235 125.378 275.384 125.145C279.622 125.034 283.747 123.752 287.301 121.441C290.856 119.13 293.701 115.88 295.523 112.052C297.203 108.104 297.78 103.775 297.192 99.5254C296.605 95.2757 294.875 91.2652 292.187 87.9215" fill="#263238"/>
<path d="M390.542 141.037C389.253 138.06 387.322 135.405 384.888 133.26C382.454 131.115 379.576 129.534 376.461 128.63C373.345 127.725 370.069 127.52 366.864 128.027C363.66 128.535 360.608 129.744 357.924 131.567C353.787 134.384 349.871 138.842 344.9 138.166C339.929 137.489 336.797 131.353 331.739 129.839C324.541 127.63 318.161 135.513 310.712 136.448C304.954 137.198 299.626 133.747 294.439 131.143C289.252 128.538 282.471 126.903 278.047 130.663C280.219 135.186 282.913 139.44 286.073 143.337C289.277 147.264 293.746 149.955 298.716 150.95C301.393 151.373 304.242 151.152 306.888 151.858C312.613 153.409 316.23 158.908 320.942 162.522C323.999 164.825 327.561 166.368 331.333 167.022C335.105 167.676 338.979 167.423 342.633 166.283C348.66 164.272 353.89 159.926 360.164 158.874C364.792 158.069 369.608 159.119 374.239 158.123C383.158 156.048 388.209 146.761 391.578 138.223" fill="#263238"/>
<path d="M407.296 191.803C407.773 188.594 407.535 185.32 406.6 182.213C405.664 179.107 404.055 176.245 401.887 173.832C399.718 171.419 397.044 169.515 394.055 168.254C391.065 166.994 387.835 166.409 384.593 166.541C379.592 166.75 373.912 168.468 370.048 165.269C366.184 162.071 366.763 155.206 363.266 151.25C358.319 145.574 348.739 148.901 341.919 145.763C336.633 143.359 333.93 137.616 330.899 132.665C327.869 127.715 322.973 122.746 317.231 123.604C316.688 128.592 316.73 133.627 317.357 138.605C318.005 143.632 320.38 148.277 324.075 151.745C326.126 153.519 328.662 154.834 330.536 156.831C334.579 161.17 334.749 167.75 336.843 173.307C338.223 176.878 340.434 180.068 343.292 182.615C346.15 185.162 349.574 186.991 353.28 187.953C359.46 189.427 366.196 188.497 372.079 190.915C376.435 192.675 379.971 196.109 384.43 197.708C393.1 200.654 402.293 195.433 409.661 189.96" fill="#263238"/>
<path d="M272.177 295.872C273.095 294.465 274.312 293.279 275.741 292.397C277.17 291.515 278.776 290.959 280.445 290.77C282.114 290.58 283.803 290.761 285.394 291.3C286.985 291.838 288.437 292.721 289.647 293.886C291.512 295.685 293.122 298.301 295.717 298.39C298.312 298.478 300.446 295.621 303.159 295.289C307.025 294.79 309.592 299.369 313.311 300.497C316.184 301.381 319.204 300.086 322.078 299.209C324.952 298.333 328.555 298.09 330.484 300.395C328.981 302.513 327.235 304.449 325.282 306.161C323.305 307.885 320.79 308.869 318.167 308.943C316.764 308.925 315.33 308.564 313.918 308.693C310.862 308.985 308.536 311.475 305.816 312.908C304.055 313.817 302.103 314.293 300.121 314.298C298.14 314.302 296.185 313.835 294.42 312.934C291.52 311.382 289.231 308.708 286.121 307.624C283.83 306.81 281.281 306.925 279.005 306.013C274.635 304.176 272.868 298.996 271.894 294.345" fill="#263238"/>
<path d="M313.072 304.189C312.954 302.716 312.512 301.286 311.777 300.003C311.043 298.72 310.034 297.614 308.823 296.766C307.613 295.917 306.229 295.346 304.772 295.094C303.316 294.842 301.821 294.914 300.395 295.305C298.196 295.912 295.851 297.259 293.806 296.236C291.762 295.213 291.313 292.105 289.354 290.708C286.574 288.696 282.662 291.158 279.311 290.465C276.717 289.941 274.926 287.669 273.072 285.782C271.218 283.895 268.533 282.192 266.072 283.163C266.343 285.434 266.879 287.665 267.669 289.811C268.474 291.977 270.067 295.889 271.112 297.889C271.112 297.889 272.034 299.695 273.072 300.389C275.313 301.901 278.387 300.965 279.888 303.217C280.868 304.661 282.177 305.85 283.708 306.687C285.239 307.525 286.947 307.985 288.692 308.031C291.587 308.051 294.483 306.945 297.344 307.414C299.459 307.748 301.381 308.91 303.526 309.161C307.678 309.579 311.224 306.315 313.933 303.128" fill="#263238"/>
<path d="M343.408 432.291C363.628 453.524 374.708 481.843 374.267 511.161C373.353 560.207 381.243 649.16 381.243 649.16L517.049 732.081L478.757 790.724L329.12 724.405L297.712 660.218L343.408 432.291Z" fill="#C6E1FF"/>
<path d="M384.838 768.333C384.838 768.333 389.895 758.585 375.699 751.182H352.547L307.522 673.531L343.408 432.291L282.024 385.682L146.187 373.496L98.7253 617.6L159.409 728.548L279.739 778.02L384.838 768.333Z" fill="#C6E1FF"/>
<path d="M170.284 375.385L172.995 352.385C173.133 351.355 173.489 350.366 174.039 349.484C174.589 348.602 175.321 347.848 176.186 347.271C177.051 346.695 178.029 346.309 179.055 346.14C180.08 345.972 181.13 346.024 182.134 346.293C215.644 372.643 250.403 385.895 286.928 375.507C289.314 376.172 291.348 377.739 292.599 379.877C293.85 382.015 294.22 384.556 293.63 386.961L279.434 444.507L242.238 455.626L193.162 446.03L170.253 403.655L170.284 375.385Z" fill="#C6E1FF"/>
<path d="M287.934 391.257C286.577 392.288 285.117 393.176 283.577 393.907C279.458 396.051 275.156 397.825 270.722 399.208C256.003 403.895 240.302 404.573 225.234 401.173C210.166 397.773 196.277 390.417 184.998 379.863C181.603 376.703 178.484 373.258 175.676 369.567C174.604 368.241 173.665 366.812 172.873 365.302C176.97 370.064 181.322 374.6 185.912 378.888C197.201 388.97 210.873 396.008 225.637 399.339C240.401 402.671 255.771 402.185 270.295 397.928C276.296 396.04 282.185 393.812 287.934 391.257Z" fill="#263238"/>
<g opacity="0.3">
<path opacity="0.3" d="M176.834 369.81C175.959 372.02 175.653 374.414 175.946 376.772C176.239 379.131 177.12 381.377 178.509 383.306C181.345 387.132 184.83 390.432 188.806 393.054C201.996 402.863 215.675 412.611 231.455 417.09C247.235 421.568 265.726 419.892 277.82 408.834C281.323 405.605 284.065 399.695 280.409 396.649C277.698 394.364 273.586 395.765 270.265 397.045C254.016 403.246 236.155 403.812 219.545 398.653C202.935 393.494 188.538 382.908 178.661 368.592" fill="black"/>
</g>
<path d="M158.099 630.912L379.964 749.903L299.875 798.309L147.223 753.528C66.2209 732.203 44.1044 698.45 44.9269 663.722C45.2011 651.079 43.7389 527.672 49.1614 467.141C56.5944 384.707 146.218 373.588 146.218 373.588L144.664 444.08L145.669 530.17L148.716 609.162C156.819 605.11 158.83 620.311 158.83 620.311L158.099 630.912Z" fill="#C6E1FF"/>
<path d="M147.315 618.575C146.797 618.575 146.096 588.721 145.761 551.89C145.426 515.06 145.578 485.175 146.096 485.175C146.614 485.175 147.284 515.03 147.619 551.89C147.954 588.751 147.802 618.575 147.315 618.575Z" fill="#263238"/>
<path d="M157.306 634.994C157.063 634.842 157.733 633.502 158.098 631.247C158.625 628.338 158.095 625.336 156.604 622.784C155.112 620.231 152.758 618.295 149.965 617.325C147.832 616.503 146.309 616.442 146.309 616.168C146.309 615.894 147.832 615.498 150.33 616.168C151.984 616.517 153.547 617.206 154.92 618.192C156.293 619.178 157.446 620.439 158.306 621.894C159.165 623.35 159.713 624.968 159.913 626.646C160.113 628.325 159.962 630.026 159.469 631.643C158.647 633.989 157.581 635.116 157.306 634.994Z" fill="#263238"/>
<path d="M157.306 634.995C157.306 634.995 157.306 634.995 157.702 635.33C158.098 635.665 158.403 635.817 159.012 636.152C160.17 636.853 162.059 637.858 164.191 639.199C168.761 641.697 175.432 645.291 183.688 649.495L248.362 682.639L312.944 715.601L332.502 725.745L337.772 728.609C338.408 728.909 339.011 729.277 339.569 729.705C338.892 729.527 338.238 729.272 337.62 728.944L332.167 726.415L312.365 716.789C295.671 708.564 272.763 697.079 247.387 684.163C222.011 671.246 199.285 659.396 182.926 650.653C166.567 641.91 156.728 635.695 157.306 634.995Z" fill="#263238"/>
<path d="M146.37 464.887C146.096 464.887 145.609 459.891 144.451 451.879C143.147 441.452 140.389 431.26 136.256 421.598C131.957 412.021 125.263 403.711 116.821 397.471C113.185 395.089 109.377 392.981 105.427 391.165C106.615 391.272 107.777 391.57 108.87 392.049C111.943 393.122 114.87 394.575 117.582 396.375C126.488 402.468 133.541 410.901 137.962 420.745C142.247 430.54 144.931 440.959 145.913 451.605C146.34 455.687 146.553 458.977 146.614 461.262C146.697 462.476 146.615 463.695 146.37 464.887Z" fill="#263238"/>
<g opacity="0.3">
<path opacity="0.3" d="M350.079 736.072C357.451 721.907 355.654 704.725 351.481 689.311C347.307 673.896 341.001 658.847 339.813 642.976C338.747 629.176 341.641 615.407 344.413 601.85C347.185 588.294 349.866 574.433 348.434 560.725C347.002 547.016 340.076 528.585 328.5 521C333.1 532.424 325.855 545.754 327.5 558C329.145 570.246 323.5 585.973 323.5 593.5C323.5 596 323.119 605.019 320.773 610.807C317.483 618.514 317.971 627.257 315.503 634.995C312.822 643.463 307.948 671.916 307.948 671.916C307.613 673.5 316.356 689.585 325.038 701.07C333.72 712.554 344.169 722.882 350.445 735.828" fill="black"/>
</g>
<path d="M350.627 735.097C350.284 734.778 349.977 734.42 349.714 734.031C349.074 733.178 348.282 732.082 347.276 730.772L338.137 718.282L306.851 673.957L306.638 673.683V673.318C310.141 656.197 314.071 636.761 318.275 616.168C318.732 613.975 319.159 611.812 319.585 609.71V609.436L319.798 609.253C323 571 324.268 578.882 324.49 560.572C324.49 544.5 329.5 536 326.135 523.5V521.671C325.586 512.532 325.13 505.22 324.794 499.981C324.794 497.605 324.581 495.716 324.49 494.223C324.416 493.565 324.416 492.901 324.49 492.243C324.661 492.88 324.764 493.534 324.794 494.193C324.947 495.685 325.13 497.574 325.373 499.95C325.83 505.159 326.47 512.471 327.292 521.579L327.14 521.244C331.5 533.5 326.71 546.181 327.292 560.572C325.933 570 327.292 572.5 325.373 585C321.723 594.02 324.49 601.5 321.322 610.776L321.565 610.319C321.139 612.421 320.712 614.584 320.255 616.777C315.99 637.34 311.969 656.806 308.436 673.896V673.257L339.234 717.977C342.859 723.308 345.723 727.603 347.825 730.711C348.739 732.082 349.47 733.209 350.049 734.123C350.276 734.425 350.47 734.752 350.627 735.097Z" fill="#263238"/>
<g opacity="0.3">
<path opacity="0.3" d="M233.547 643.763C231.324 642.026 227.881 644.738 228.003 647.54C228.25 648.928 228.824 650.238 229.677 651.361C230.529 652.484 231.637 653.388 232.908 653.998C239.691 657.782 247.491 659.338 255.207 658.446C264.843 657.93 274.021 654.172 281.253 647.784C284.805 644.563 287.475 640.488 289.011 635.946C290.546 631.404 290.896 626.544 290.027 621.829C289.934 621.054 289.616 620.323 289.113 619.727C287.315 617.869 284.3 619.94 282.502 621.829C270.075 634.884 253.129 642.697 235.132 643.671" fill="black"/>
</g>
<g opacity="0.3">
<path opacity="0.3" d="M146.218 616.412C142.045 614.643 137.41 614.281 133.013 615.38C128.616 616.479 124.697 618.98 121.847 622.504C120.848 623.539 120.177 624.845 119.917 626.259C119.657 627.673 119.82 629.133 120.385 630.455C121.118 631.39 122.109 632.089 123.234 632.468C124.36 632.847 125.572 632.889 126.721 632.588C128.967 631.872 131.042 630.7 132.814 629.145C136.926 626.099 140.978 622.687 144.999 619.275C145.593 618.831 146.065 618.245 146.37 617.569C146.508 617.23 146.52 616.852 146.402 616.506C146.285 616.159 146.046 615.866 145.73 615.68" fill="black"/>
</g>
<path d="M127.452 635.147C127.239 635.147 127.452 633.319 128.518 630.669C130.004 627.248 132.243 624.208 135.068 621.773C137.87 619.295 141.19 617.474 144.786 616.442C147.528 615.711 149.294 615.772 149.325 616.016C149.355 616.26 142.501 617.63 136.287 623.175C130.072 628.719 127.97 635.36 127.452 635.147Z" fill="#263238"/>
<path d="M430.655 931.617C430.289 931.952 383.741 882.876 326.744 822.162C269.747 761.448 223.778 711.793 224.143 711.458C224.509 711.123 271.057 760.199 328.085 820.882C385.112 881.566 431.051 931.251 430.655 931.617Z" fill="#455A64"/>
<path d="M86.3877 477.62C85.1287 472.633 84.3936 467.528 84.1943 462.389C83.4781 457.253 83.274 452.059 83.5851 446.883C84.8089 451.877 85.5434 456.978 85.7784 462.115C86.4947 467.25 86.6988 472.444 86.3877 477.62Z" fill="#C6E1FF"/>
<path d="M103.386 528.281C103.777 518.508 105.217 508.806 107.682 499.341C107.784 504.24 107.334 509.134 106.341 513.933C105.875 518.808 104.885 523.619 103.386 528.281Z" fill="#C6E1FF"/>
<path d="M70.9121 562.583C69.878 557.571 69.3473 552.468 69.328 547.351C68.793 542.288 68.793 537.183 69.328 532.119C70.3595 537.131 70.8801 542.234 70.8816 547.351C71.4386 552.413 71.4488 557.519 70.9121 562.583Z" fill="#C6E1FF"/>
<path d="M117.978 605.475C115.337 602.037 113.137 598.281 111.429 594.295C109.255 590.549 107.527 586.562 106.28 582.415C108.913 585.859 111.112 589.614 112.83 593.595C115.003 597.341 116.731 601.328 117.978 605.475Z" fill="#C6E1FF"/>
<path d="M81.6963 631.187C79.2601 633.858 76.4361 636.148 73.3189 637.98C70.5007 640.26 67.359 642.108 63.9971 643.463C66.4208 640.815 69.2111 638.527 72.2831 636.67C75.1347 634.39 78.3065 632.542 81.6963 631.187Z" fill="#C6E1FF"/>
<path d="M155.144 652.541C153.2 649.959 151.688 647.078 150.665 644.012C149.148 641.156 148.118 638.067 147.619 634.873C149.571 637.45 151.084 640.332 152.097 643.402C153.603 646.263 154.632 649.35 155.144 652.541Z" fill="#C6E1FF"/>
<path d="M233.739 686.386C228.514 684.706 223.464 682.523 218.66 679.867C213.615 677.692 208.79 675.04 204.251 671.947C209.482 673.611 214.534 675.795 219.33 678.466C224.375 680.64 229.2 683.293 233.739 686.386Z" fill="#C6E1FF"/>
<path d="M252.474 729.126C253.89 725.489 255.785 722.057 258.11 718.921C259.948 715.464 262.266 712.285 264.995 709.478C263.6 713.135 261.736 716.596 259.45 719.774C257.564 723.196 255.217 726.343 252.474 729.126Z" fill="#C6E1FF"/>
<path d="M289.335 764.616C288.715 759.001 288.634 753.34 289.091 747.709C289.021 742.064 289.469 736.425 290.432 730.863C291.123 742.123 290.756 753.424 289.335 764.616Z" fill="#C6E1FF"/>
<path d="M172.203 410.449C168.223 409.721 164.399 408.309 160.901 406.275C157.179 404.698 153.749 402.504 150.757 399.786C154.523 401.127 158.154 402.82 161.602 404.843C165.296 406.391 168.844 408.267 172.203 410.449Z" fill="#C6E1FF"/>
<path d="M116.973 419.679C110.713 416.834 104.929 413.043 99.822 408.438C103.104 409.616 106.186 411.291 108.961 413.404C111.937 415.072 114.64 417.189 116.973 419.679Z" fill="#C6E1FF"/>
<path d="M170.467 484.871C173.607 474.848 177.741 465.163 182.804 455.961C179.698 465.997 175.564 475.685 170.467 484.871Z" fill="#C6E1FF"/>
<path d="M180.702 551.372C177.832 547.361 175.207 543.18 172.843 538.852C170.044 534.785 167.51 530.542 165.257 526.149C168.809 529.641 171.817 533.646 174.183 538.029C177.019 542.121 179.217 546.62 180.702 551.372Z" fill="#C6E1FF"/>
<path d="M238.674 478.047C235.715 481.402 232.371 484.398 228.713 486.973C225.382 489.945 221.711 492.511 217.776 494.619C224.072 488.299 231.086 482.737 238.674 478.047Z" fill="#C6E1FF"/>
<path d="M231.729 444.751C228.38 440.635 225.451 436.196 222.986 431.499C220.07 427.062 217.601 422.348 215.614 417.425C218.962 421.54 221.891 425.979 224.357 430.676C227.272 435.113 229.741 439.827 231.729 444.751Z" fill="#C6E1FF"/>
<path d="M278.063 417.333C276.772 421.513 274.982 425.523 272.732 429.275C270.942 433.273 268.671 437.037 265.969 440.485C267.286 436.31 269.086 432.302 271.331 428.544C273.114 424.548 275.374 420.784 278.063 417.333Z" fill="#C6E1FF"/>
<path d="M228.469 397.624C228.7 394.927 229.117 392.25 229.718 389.612C229.825 386.905 230.11 384.208 230.571 381.539C231.655 384.161 231.91 387.053 231.302 389.825C231.198 392.657 230.207 395.385 228.469 397.624Z" fill="#C6E1FF"/>
<path d="M270.752 395.46C268.217 394.641 265.874 393.314 263.868 391.561C260.303 389.063 257.775 386.717 257.775 386.382C260.307 387.209 262.648 388.535 264.66 390.282C268.346 392.78 270.996 395.125 270.752 395.46Z" fill="#C6E1FF"/>
<path d="M192.553 367.099C192.553 367.526 190.512 367.891 187.983 367.891C185.455 367.891 183.444 367.526 183.444 367.099C183.444 366.673 185.485 366.307 187.983 366.307C190.481 366.307 192.553 366.642 192.553 367.099Z" fill="#C6E1FF"/>
<path d="M324.429 440.882C320.531 438.052 316.956 434.804 313.767 431.194C310.208 427.944 307.011 424.318 304.232 420.38C308.129 423.209 311.705 426.458 314.894 430.067C318.453 433.317 321.65 436.943 324.429 440.882Z" fill="#C6E1FF"/>
<path d="M298.535 507.414C298.93 496.811 300.986 486.337 304.628 476.372C304.098 481.627 303.202 486.838 301.947 491.969C301.182 497.192 300.042 502.354 298.535 507.414Z" fill="#C6E1FF"/>
<path d="M267.401 537.969C265.943 532.167 264.874 526.274 264.203 520.33C263.004 514.469 262.18 508.536 261.735 502.57C265.198 514.063 267.104 525.969 267.401 537.969Z" fill="#C6E1FF"/>
<path d="M226.337 580.77C220.4 572.738 216.02 563.666 213.42 554.023C215.924 558.299 218.143 562.736 220.061 567.305C222.429 571.659 224.525 576.156 226.337 580.77Z" fill="#C6E1FF"/>
<path d="M199.072 606.206C193.887 605.504 188.785 604.29 183.84 602.581C178.743 601.358 173.783 599.623 169.035 597.402C174.222 598.107 179.325 599.331 184.267 601.058C189.367 602.257 194.328 603.982 199.072 606.206Z" fill="#C6E1FF"/>
<path d="M219.97 633.989C217.505 636.368 214.89 638.586 212.141 640.63C209.734 643.064 207.159 645.324 204.433 647.393C208.005 641.345 213.463 636.636 219.97 633.989Z" fill="#C6E1FF"/>
<path d="M256.495 667.133C255.089 662.64 254.209 657.999 253.876 653.303C253.012 648.684 252.665 643.985 252.84 639.29C255.108 648.402 256.335 657.744 256.495 667.133Z" fill="#C6E1FF"/>
<path d="M298.078 655.801C290.383 654.176 283.206 650.681 277.18 645.626C280.811 646.984 284.326 648.634 287.69 650.561C291.296 652.009 294.771 653.762 298.078 655.801Z" fill="#C6E1FF"/>
<path d="M309.41 588.081C304.893 590.404 300.233 592.439 295.458 594.173C290.902 596.411 286.212 598.364 281.415 600.022C285.502 596.935 290.031 594.48 294.849 592.741C299.445 590.476 304.353 588.905 309.41 588.081Z" fill="#C6E1FF"/>
<path d="M318.488 568.432C314.795 565.106 311.475 561.388 308.588 557.343C305.265 553.605 302.354 549.519 299.906 545.158C303.599 548.483 306.919 552.201 309.806 556.246C313.121 559.991 316.032 564.076 318.488 568.432Z" fill="#C6E1FF"/>
<path d="M294.666 706.736C292.695 700.693 291.777 694.355 291.955 688.001C293.887 694.053 294.803 700.384 294.666 706.736Z" fill="#C6E1FF"/>
<path d="M361.381 646.601C357.596 643.393 354.155 639.799 351.115 635.878C347.652 632.289 344.588 628.336 341.976 624.088C345.751 627.309 349.181 630.913 352.212 634.842C355.684 638.419 358.758 642.361 361.381 646.601Z" fill="#C6E1FF"/>
<path d="M357.025 610.288C358.081 605.721 359.644 601.287 361.686 597.067C363.231 592.675 365.276 588.474 367.778 584.547C365.155 593.493 361.517 602.109 356.933 610.228L357.025 610.288Z" fill="#C6E1FF"/>
<path d="M362.021 543.696C359.075 540.988 356.485 537.917 354.313 534.557C351.745 531.498 349.584 528.119 347.886 524.504C350.841 527.202 353.432 530.274 355.593 533.643C358.182 536.687 360.344 540.069 362.021 543.696Z" fill="#C6E1FF"/>
<path d="M353.887 483.744C346.577 476.466 340.052 468.441 334.421 459.799C341.712 467.093 348.235 475.117 353.887 483.744Z" fill="#C6E1FF"/>
<path d="M373.17 709.965C374.974 705.32 377.261 700.879 379.994 696.713C382.275 692.283 385.033 688.115 388.219 684.284C386.401 688.918 384.104 693.349 381.365 697.505C379.087 701.94 376.34 706.117 373.17 709.965Z" fill="#C6E1FF"/>
<path d="M411.585 736.133C409.268 730.957 407.453 725.571 406.162 720.048C404.376 714.663 403.081 709.126 402.293 703.507C404.607 708.695 406.422 714.091 407.716 719.622C409.497 724.999 410.792 730.525 411.585 736.133Z" fill="#C6E1FF"/>
<path d="M455.513 729.187C453.549 726.519 452.017 723.559 450.974 720.414C449.462 717.47 448.433 714.302 447.928 711.031C451.462 716.663 454.045 722.838 455.574 729.309L455.513 729.187Z" fill="#C6E1FF"/>
<path d="M357.969 783.321L595.066 668.138C606.976 662.355 620.149 659.661 633.373 660.305C646.597 660.949 659.446 664.911 670.737 671.825C680.471 677.778 688.796 685.772 695.14 695.256C701.484 704.739 705.694 715.486 707.481 726.755C709.268 738.024 708.589 749.546 705.49 760.527C702.392 771.508 696.947 781.685 689.533 790.358L586.81 910.597L324.52 946.849L299.967 798.309L329.12 753.162L357.969 783.321Z" fill="#263238"/>
<path d="M501.178 832.489C501.178 832.489 500.233 833.433 498.131 834.895C496.029 836.358 493.349 838.338 489.784 840.775C482.686 845.649 472.694 852.168 461.423 859.053C450.151 865.938 439.703 871.634 432.056 875.655C428.248 877.666 425.141 879.22 422.917 880.255C421.827 880.89 420.66 881.382 419.444 881.718C420.367 880.892 421.391 880.186 422.491 879.616L431.752 874.285C439.215 869.989 449.481 864.018 460.753 857.225C472.024 850.432 482.077 844.126 489.388 839.556L498.04 834.164C499.024 833.498 500.076 832.936 501.178 832.489Z" fill="#455A64"/>
<path d="M0.419813 841.323C0.419813 841.323 23.968 727.603 36.062 710.117C48.156 692.631 73.7453 653.486 106.128 649.434C138.511 645.383 204.403 684.132 216.436 699.364C246.899 737.87 438.636 940.939 436.291 938.289L374.48 980.937L309.167 960.222H121.573C121.573 960.222 -8.29273 938.258 0.419813 841.323Z" fill="#263238"/>
<path d="M309.075 960.222C308.112 960.297 307.144 960.297 306.181 960.222C303.443 959.973 300.725 959.536 298.047 958.912C288.221 956.507 278.66 953.13 269.503 948.829C239.362 934.519 211.001 916.729 184.998 895.822C154.077 872.122 127.117 849.122 109.448 830.692C102.308 823.547 95.7482 815.846 89.8299 807.661C88.2037 805.443 86.7378 803.112 85.4432 800.685C84.9125 799.89 84.4635 799.042 84.1028 798.157C84.7279 798.889 85.2884 799.674 85.7782 800.502C87.2474 802.843 88.844 805.1 90.561 807.265C96.681 815.243 103.359 822.776 110.545 829.808C134.405 852.91 159.711 874.471 186.308 894.36C212.182 915.072 240.267 932.859 270.052 947.397C279.105 951.766 288.537 955.304 298.23 957.968C300.87 958.655 303.545 959.205 306.242 959.613C307.202 959.735 308.15 959.939 309.075 960.222Z" fill="#455A64"/>
<path d="M225.057 934.846C224.285 935.397 223.47 935.886 222.62 936.308L215.461 940.268C212.415 941.974 208.302 943.528 203.702 945.6C201.417 946.666 198.828 947.366 196.147 948.372C193.467 949.377 190.633 950.443 187.526 951.144C173.199 955.229 158.402 957.43 143.507 957.694C125.266 958.066 107.072 955.715 89.5253 950.717C71.9631 945.674 55.3442 937.791 40.3268 927.382C36.9758 924.823 33.5639 922.569 30.4871 919.98C27.5543 917.434 24.8246 914.664 22.323 911.694C17.8798 906.346 14.0101 900.546 10.7773 894.391C5.98856 885.541 2.7045 875.956 1.05945 866.029C0.59712 863.342 0.352648 860.622 0.328353 857.895C0.248947 856.953 0.248947 856.005 0.328353 855.062C0.541597 855.062 0.32836 858.992 1.66875 865.907C3.58158 875.674 7.01492 885.079 11.8435 893.781C15.1405 899.858 19.0609 905.576 23.5415 910.841C26.0047 913.731 28.694 916.42 31.5838 918.883C34.6302 921.381 38.0116 923.635 41.3321 926.103C56.2353 936.336 72.6948 944.093 90.0736 949.072C107.443 954.028 125.447 956.399 143.507 956.109C158.268 955.944 172.948 953.896 187.191 950.017C190.237 949.377 193.07 948.219 195.782 947.397C198.493 946.574 201.082 945.813 203.367 944.777C207.967 942.797 212.049 941.365 215.187 939.751L222.468 936.156C223.285 935.634 224.153 935.196 225.057 934.846Z" fill="#455A64"/>
<path d="M237.151 930.733C237.151 930.733 194.776 948.006 199.194 967.746C203.611 987.487 225.484 996.687 247.6 994.585C269.717 992.483 310.385 974.235 310.385 974.235L331.344 963.147C331.344 963.147 305.877 962.75 292.991 958.15C278.094 952.789 237.151 930.733 237.151 930.733Z" fill="#C6E1FF"/>
<path d="M289.579 965.371L439.977 989.041L757.71 957.389L583.551 909.623L289.67 951.875C288.044 952.11 286.558 952.923 285.484 954.165C284.409 955.408 283.819 956.996 283.821 958.638C283.823 960.262 284.404 961.832 285.459 963.066C286.514 964.3 287.975 965.117 289.579 965.371Z" fill="#455A64"/>
<path d="M480.493 749.659L443.937 964.944C443.459 967.771 443.64 970.67 444.465 973.416C445.29 976.162 446.737 978.681 448.694 980.776C450.651 982.872 453.065 984.488 455.748 985.498C458.432 986.509 461.312 986.887 464.165 986.603L757.71 957.389C761.744 956.99 765.538 955.288 768.518 952.539C771.497 949.791 773.5 946.146 774.222 942.157L813.824 724.222C814.342 721.367 814.188 718.43 813.373 715.645C812.558 712.86 811.106 710.303 809.131 708.178C807.156 706.052 804.713 704.415 801.995 703.398C799.277 702.381 796.36 702.012 793.474 702.319L496.883 734.153C492.832 734.592 489.036 736.345 486.076 739.145C483.116 741.946 481.155 745.638 480.493 749.659Z" fill="#455A64"/>
<path d="M283.821 958.638C284.083 958.591 284.351 958.591 284.613 958.638L286.928 958.912L295.854 960.161L328.998 965.127L441.317 982.491L440.281 983.253C442.109 972.042 444.028 960.344 446.008 948.402C454.843 895.426 462.855 847.508 468.673 812.627C471.719 795.385 474.065 781.371 475.771 771.532L477.782 760.382L478.36 757.488C478.413 757.157 478.494 756.83 478.604 756.513C478.604 756.513 478.604 756.848 478.604 757.519C478.604 758.189 478.391 759.224 478.208 760.565L476.563 771.775C474.979 781.646 472.786 795.689 470.044 812.992C464.378 847.873 456.549 895.822 447.897 948.829C445.947 960.771 443.998 972.438 442.14 983.679L441.987 984.593L441.104 984.441L328.876 966.437L295.824 960.923L286.928 959.369L284.644 958.943L283.821 958.638Z" fill="#263238"/>
<path d="M663.883 842.907C663.883 854.575 655.445 864.049 645.026 864.049C634.608 864.049 626.169 854.575 626.169 842.907C626.169 831.24 634.608 821.735 645.026 821.735C655.445 821.735 663.883 831.21 663.883 842.907Z" fill="#C6E1FF"/>
<path d="M644.826 869.996C660.645 869.996 673.469 857.296 673.469 841.629C673.469 825.962 660.645 813.262 644.826 813.262C629.007 813.262 616.183 825.962 616.183 841.629C616.183 857.296 629.007 869.996 644.826 869.996Z" fill="#263238"/>
<path d="M621.546 846.003C621.245 845.868 620.976 845.674 620.753 845.432C620.53 845.189 620.359 844.904 620.25 844.594C619.983 843.928 619.983 843.186 620.25 842.52C620.395 842.154 620.613 841.821 620.892 841.542C621.171 841.264 621.503 841.045 621.87 840.9L634.004 836.04C634.409 835.862 634.83 836.04 635.284 836.575C635.686 837.024 635.931 837.593 635.98 838.195C635.991 838.484 635.919 838.77 635.772 839.02C635.626 839.269 635.412 839.472 635.154 839.604L624.98 843.557L635.187 847.656C635.401 847.8 635.573 848 635.685 848.233C635.796 848.467 635.842 848.726 635.818 848.984C635.799 849.572 635.595 850.139 635.235 850.604C634.846 851.123 634.458 851.301 634.053 851.139L621.546 846.003Z" fill="white"/>
<path d="M640.484 852.791C640.317 852.658 640.183 852.488 640.093 852.294C640.003 852.1 639.959 851.887 639.966 851.673C640.038 851.09 640.168 850.514 640.355 849.956L647.094 830.515C647.515 829.057 648.115 828.328 648.892 828.328C649.319 828.322 649.734 828.471 650.059 828.75C650.217 828.909 650.34 829.099 650.421 829.308C650.502 829.517 650.539 829.741 650.529 829.965C650.487 830.52 650.361 831.067 650.156 831.585L643.109 852.159C643.03 852.486 642.839 852.775 642.57 852.976C642.301 853.177 641.97 853.278 641.634 853.261C641.207 853.248 640.799 853.081 640.484 852.791Z" fill="white"/>
<path d="M653.72 850.685C653.36 850.22 653.156 849.653 653.137 849.065C653.113 848.807 653.159 848.548 653.271 848.314C653.382 848.08 653.554 847.881 653.769 847.737L663.975 843.638L653.801 839.685C653.544 839.553 653.329 839.35 653.183 839.1C653.037 838.851 652.964 838.565 652.975 838.275C653.024 837.674 653.269 837.105 653.671 836.655C654.125 836.121 654.546 835.943 654.951 836.121L667.086 840.981C667.67 841.212 668.169 841.62 668.511 842.147C668.82 842.595 668.984 843.127 668.981 843.67C668.961 844.178 668.817 844.673 668.56 845.112C668.322 845.546 667.945 845.888 667.491 846.084L654.903 851.317C654.498 851.382 654.109 851.204 653.72 850.685Z" fill="white"/>
<path d="M446.983 822.802C436.626 813.51 448.263 802.665 429.558 784.997C415.576 771.806 389.103 749.202 337.803 732.082L305.664 789.475L361.594 807.509L361.046 844.065C361.022 845.846 361.354 847.613 362.023 849.263C362.692 850.913 363.685 852.413 364.942 853.673C366.2 854.934 367.697 855.93 369.346 856.602C370.994 857.275 372.761 857.611 374.541 857.591L403.573 857.256C403.573 857.256 395.104 893.05 396.506 895.244C397.273 896.45 398.363 897.418 399.651 898.039C400.94 898.659 402.376 898.907 403.798 898.755C405.22 898.603 406.571 898.057 407.7 897.178C408.828 896.3 409.688 895.123 410.184 893.781C411.341 888.938 435.225 831.088 435.225 831.088C435.225 831.088 450.852 844.583 453.046 836.845C452.893 836.784 457.189 832.123 446.983 822.802Z" fill="#FFBE9D"/>
<path d="M368.723 858.413C368.723 858.2 370.094 857.316 372.013 855.367C374.494 852.894 376.382 849.89 377.532 846.581C378.683 843.272 379.066 839.745 378.654 836.266C378.32 834.822 378.086 833.356 377.953 831.879C378.86 833.127 379.436 834.584 379.629 836.114C380.331 839.761 380.059 843.53 378.84 847.039C377.62 850.547 375.496 853.672 372.683 856.098C371.581 857.194 370.218 857.991 368.723 858.413Z" fill="#E5A380"/>
<path d="M387.397 857.195C390.026 853.897 391.928 850.081 392.978 845.996C394.028 841.911 394.202 837.651 393.49 833.494C394.217 834.56 394.648 835.801 394.739 837.089C395.241 840.13 395.107 843.242 394.343 846.228C393.577 849.251 392.175 852.076 390.23 854.514C388.707 856.494 387.488 857.317 387.397 857.195Z" fill="#E5A380"/>
<path d="M409.909 836.205C410.062 836.205 410.427 837.363 410.488 839.252C410.488 841.853 409.962 844.427 408.941 846.82C407.92 849.212 406.426 851.374 404.548 853.174C403.085 854.514 401.989 855.093 401.867 854.94C406.813 849.895 409.683 843.176 409.909 836.114V836.205Z" fill="#E5A380"/>
<path d="M183.999 327.262H183.16L180.706 326.976C179.392 326.782 178.096 326.484 176.831 326.086C175.058 325.631 173.33 325.024 171.664 324.273C167.097 322.235 162.907 319.463 159.264 316.071C154.418 311.546 150.58 306.079 147.995 300.016C146.442 296.501 145.356 292.804 144.766 289.016C144.23 284.891 144.339 280.709 145.089 276.617C146.606 268.128 151.547 259.926 151.547 250.579C151.272 245.804 149.962 241.142 147.704 236.908C145.244 232.302 143.709 227.272 143.183 222.093C143.246 219.346 143.867 216.64 145.01 214.134C146.152 211.628 147.793 209.372 149.835 207.5C153.873 203.646 158.492 200.429 163.527 197.962C168.417 195.585 173.021 192.673 177.25 189.283C181.124 185.859 183.981 181.463 185.517 176.566C188.746 166.806 188.746 156.664 190.619 147.254C191.495 142.588 193.223 138.118 195.721 134.06C198.174 130.253 201.561 127.115 205.57 124.935C212.841 121.472 220.726 119.432 228.787 118.927C235.323 118.498 241.806 117.498 248.162 115.938C252.944 114.755 257.458 112.695 261.466 109.866C263.998 108.069 266.112 105.76 267.666 103.094C268.699 101.282 269.086 100.201 269.183 100.265C268.881 101.3 268.47 102.302 267.956 103.253C266.499 106.053 264.412 108.489 261.853 110.375C257.826 113.315 253.267 115.473 248.42 116.733C242.073 118.367 235.588 119.431 229.045 119.912C221.19 120.494 213.518 122.544 206.442 125.953C202.644 128.025 199.452 131.025 197.174 134.664C194.784 138.576 193.142 142.886 192.33 147.381C190.393 156.601 190.522 166.806 187.261 176.916C185.656 182.125 182.642 186.807 178.542 190.459C174.232 193.937 169.53 196.913 164.528 199.33C159.651 201.692 155.165 204.769 151.224 208.454C149.338 210.174 147.819 212.245 146.755 214.549C145.69 216.852 145.102 219.341 145.024 221.87C145.411 231.917 153.484 240.215 153.29 250.483C153.121 255.202 152.172 259.863 150.481 264.281C148.963 268.363 147.712 272.536 146.735 276.776C145.987 280.728 145.846 284.768 146.316 288.761C146.82 292.439 147.796 296.04 149.222 299.475C151.68 305.45 155.362 310.861 160.039 315.372C163.567 318.766 167.636 321.569 172.084 323.669C175.903 325.313 179.901 326.518 183.999 327.262Z" fill="#455A64"/>
<path d="M422.765 217.585C422.552 217.585 422.552 214.721 421.333 209.756C419.527 202.746 416.105 196.257 411.341 190.807C404.353 182.571 394.609 177.158 383.924 175.576C377.558 174.899 371.233 173.882 364.976 172.529C358.103 170.745 352.141 166.466 348.251 160.527C344.657 154.626 341.735 148.342 339.539 141.792C337.528 135.812 334.731 130.127 331.222 124.884C324.716 116.34 315.5 110.261 305.085 107.642C298.116 105.837 290.833 105.597 283.76 106.941C281.831 107.351 279.928 107.88 278.064 108.526C277.428 108.793 276.763 108.987 276.083 109.104C276.684 108.751 277.316 108.455 277.972 108.221C279.806 107.446 281.702 106.824 283.638 106.363C290.821 104.7 298.296 104.762 305.45 106.545C316.216 109.078 325.78 115.242 332.532 124.001C336.171 129.327 339.08 135.115 341.184 141.213C343.369 147.597 346.239 153.725 349.744 159.491C353.434 165.117 359.078 169.176 365.585 170.884C371.891 172.621 378.319 172.956 384.351 173.931C395.284 175.64 405.212 181.297 412.255 189.832C417.034 195.459 420.379 202.159 422.003 209.359C422.432 211.304 422.697 213.281 422.795 215.269C422.844 216.041 422.834 216.815 422.765 217.585Z" fill="#455A64"/>
<path d="M352.313 290.615C352.313 290.615 318.812 346.765 298.496 344.613C284.989 343.183 288.812 331.729 288.812 331.729L278.312 327.615C278.312 327.615 264.89 337.75 256.52 331.729C234.812 316.115 242.496 313.615 242.496 282.613L230.312 258.115C230.312 258.115 221.263 293.799 221.872 308L224.872 321C224.872 321 243.108 350.901 262.872 362C285.587 364.219 303.272 359.743 306.872 356.5C351.249 328.12 352.313 290.615 352.313 290.615Z" fill="#263238"/>
<path d="M191.025 561.024L240.383 511.666" stroke="#263238" stroke-linecap="round" stroke-linejoin="round"/>
<path d="M220.202 512.897L244.874 488.211" stroke="#263238" stroke-linecap="round" stroke-linejoin="round"/>
<path d="M195.516 537.569L211.231 521.854" stroke="#263238" stroke-linecap="round" stroke-linejoin="round"/>
</svg>
