<svg width="390" height="26" viewBox="0 0 390 26" fill="none" xmlns="http://www.w3.org/2000/svg">
<mask id="mask0" mask-type="alpha" maskUnits="userSpaceOnUse" x="233" y="11" width="149" height="4">
<path d="M380.558 14.1158H234.411C233.59 14.1158 233.179 13.7072 233.179 12.8899C233.179 12.0726 233.59 11.6638 234.411 11.6638H380.558C381.379 11.6638 381.79 12.0726 381.79 12.8899C381.79 13.7072 381.379 14.1158 380.558 14.1158Z" fill="white"/>
</mask>
<g mask="url(#mask0)">
<path d="M380.558 14.1158H234.411C233.59 14.1158 233.179 13.7072 233.179 12.8899C233.179 12.0726 233.59 11.6638 234.411 11.6638H380.558C381.379 11.6638 381.79 12.0726 381.79 12.8899C381.79 13.7072 381.379 14.1158 380.558 14.1158Z" fill="white" stroke="white" stroke-width="4"/>
</g>
<mask id="mask1" mask-type="alpha" maskUnits="userSpaceOnUse" x="8" y="11" width="152" height="4">
<path d="M158.053 14.1158H9.85317C9.03212 14.1158 8.62158 13.7072 8.62158 12.8899C8.62158 12.0726 9.03212 11.6638 9.85317 11.6638H158.053C158.874 11.6638 159.285 12.0726 159.285 12.8899C159.285 13.7072 158.464 14.1158 158.053 14.1158Z" fill="white"/>
</mask>
<g mask="url(#mask1)">
<path d="M158.053 14.1158H9.85317C9.03212 14.1158 8.62158 13.7072 8.62158 12.8899C8.62158 12.0726 9.03212 11.6638 9.85317 11.6638H158.053C158.874 11.6638 159.285 12.0726 159.285 12.8899C159.285 13.7072 158.464 14.1158 158.053 14.1158Z" fill="white" stroke="white" stroke-width="4"/>
</g>
<mask id="mask2" mask-type="alpha" maskUnits="userSpaceOnUse" x="0" y="7" width="11" height="12">
<path d="M5.33686 18.2024C2.46317 18.2024 0 15.7504 0 12.8898C0 10.0292 2.46317 7.57715 5.33686 7.57715C8.21055 7.57715 10.6737 10.0292 10.6737 12.8898C10.6737 15.7504 8.21055 18.2024 5.33686 18.2024ZM5.33686 10.0291C3.69475 10.0291 2.46319 11.2552 2.46319 12.8898C2.46319 14.5245 3.69475 15.7504 5.33686 15.7504C6.97897 15.7504 8.21053 14.5245 8.21053 12.8898C8.21053 11.2552 6.97897 10.0291 5.33686 10.0291Z" fill="white"/>
</mask>
<g mask="url(#mask2)">
<path d="M5.33686 18.2024C2.46317 18.2024 0 15.7504 0 12.8898C0 10.0292 2.46317 7.57715 5.33686 7.57715C8.21055 7.57715 10.6737 10.0292 10.6737 12.8898C10.6737 15.7504 8.21055 18.2024 5.33686 18.2024ZM5.33686 10.0291C3.69475 10.0291 2.46319 11.2552 2.46319 12.8898C2.46319 14.5245 3.69475 15.7504 5.33686 15.7504C6.97897 15.7504 8.21053 14.5245 8.21053 12.8898C8.21053 11.2552 6.97897 10.0291 5.33686 10.0291Z" fill="white" stroke="white" stroke-width="4"/>
</g>
<mask id="mask3" mask-type="alpha" maskUnits="userSpaceOnUse" x="215" y="5" width="16" height="16">
<path d="M223.326 20.2458C219.221 20.2458 215.937 16.9765 215.937 12.8899C215.937 8.80331 219.221 5.53394 223.326 5.53394C227.431 5.53394 230.716 8.80331 230.716 12.8899C231.126 16.9765 227.842 20.2458 223.326 20.2458ZM223.326 7.98594C220.452 7.98594 217.989 10.4378 217.989 13.2985C217.989 16.1591 220.452 18.6112 223.326 18.6112C226.2 18.6112 228.663 16.1591 228.663 13.2985C228.663 10.0292 226.2 7.98594 223.326 7.98594Z" fill="white"/>
</mask>
<g mask="url(#mask3)">
<path d="M223.326 20.2458C219.221 20.2458 215.937 16.9765 215.937 12.8899C215.937 8.80331 219.221 5.53394 223.326 5.53394C227.431 5.53394 230.716 8.80331 230.716 12.8899C231.126 16.9765 227.842 20.2458 223.326 20.2458ZM223.326 7.98594C220.452 7.98594 217.989 10.4378 217.989 13.2985C217.989 16.1591 220.452 18.6112 223.326 18.6112C226.2 18.6112 228.663 16.1591 228.663 13.2985C228.663 10.0292 226.2 7.98594 223.326 7.98594Z" fill="white" stroke="white" stroke-width="4"/>
</g>
<mask id="mask4" mask-type="alpha" maskUnits="userSpaceOnUse" x="160" y="5" width="16" height="16">
<path d="M168.316 20.2458C164.211 20.2458 160.927 16.9765 160.927 12.8899C160.927 8.80331 164.211 5.53394 168.316 5.53394C172.421 5.53394 175.706 8.80331 175.706 12.8899C175.706 16.9765 172.421 20.2458 168.316 20.2458ZM168.316 7.98594C165.443 7.98594 162.979 10.4378 162.979 13.2985C162.979 16.1591 165.443 18.6112 168.316 18.6112C171.19 18.6112 173.653 16.1591 173.653 13.2985C173.243 10.0292 171.19 7.98594 168.316 7.98594Z" fill="white"/>
</mask>
<g mask="url(#mask4)">
<path d="M168.316 20.2458C164.211 20.2458 160.927 16.9765 160.927 12.8899C160.927 8.80331 164.211 5.53394 168.316 5.53394C172.421 5.53394 175.706 8.80331 175.706 12.8899C175.706 16.9765 172.421 20.2458 168.316 20.2458ZM168.316 7.98594C165.443 7.98594 162.979 10.4378 162.979 13.2985C162.979 16.1591 165.443 18.6112 168.316 18.6112C171.19 18.6112 173.653 16.1591 173.653 13.2985C173.243 10.0292 171.19 7.98594 168.316 7.98594Z" fill="white" stroke="white" stroke-width="4"/>
</g>
<mask id="mask5" mask-type="alpha" maskUnits="userSpaceOnUse" x="183" y="0" width="26" height="26">
<path d="M195.822 25.1497C188.843 25.1497 183.506 19.8371 183.506 12.8898C183.506 5.9425 188.843 0.629883 195.822 0.629883C202.801 0.629883 208.137 5.9425 208.137 12.8898C208.137 19.8371 202.801 25.1497 195.822 25.1497ZM195.822 3.08176C190.485 3.08176 185.969 7.57715 185.969 12.8898C185.969 18.2024 190.485 22.6977 195.822 22.6977C201.159 22.6977 205.674 18.2024 205.674 12.8898C205.674 7.57715 201.159 3.08176 195.822 3.08176Z" fill="white"/>
</mask>
<g mask="url(#mask5)">
<path d="M195.822 25.1497C188.843 25.1497 183.506 19.8371 183.506 12.8898C183.506 5.9425 188.843 0.629883 195.822 0.629883C202.801 0.629883 208.137 5.9425 208.137 12.8898C208.137 19.8371 202.801 25.1497 195.822 25.1497ZM195.822 3.08176C190.485 3.08176 185.969 7.57715 185.969 12.8898C185.969 18.2024 190.485 22.6977 195.822 22.6977C201.159 22.6977 205.674 18.2024 205.674 12.8898C205.674 7.57715 201.159 3.08176 195.822 3.08176Z" fill="white" stroke="white" stroke-width="4"/>
</g>
<mask id="mask6" mask-type="alpha" maskUnits="userSpaceOnUse" x="379" y="7" width="12" height="12">
<path d="M384.663 18.2024C381.789 18.2024 379.326 15.7504 379.326 12.8898C379.326 10.0292 381.789 7.57715 384.663 7.57715C387.537 7.57715 390 10.0292 390 12.8898C390 15.7504 387.537 18.2024 384.663 18.2024ZM384.663 10.0291C383.021 10.0291 381.789 11.2552 381.789 12.8898C381.789 14.5245 383.021 15.7504 384.663 15.7504C386.305 15.7504 387.537 14.5245 387.537 12.8898C387.537 11.2552 386.305 10.0291 384.663 10.0291Z" fill="white"/>
</mask>
<g mask="url(#mask6)">
<path d="M384.663 18.2024C381.789 18.2024 379.326 15.7504 379.326 12.8898C379.326 10.0292 381.789 7.57715 384.663 7.57715C387.537 7.57715 390 10.0292 390 12.8898C390 15.7504 387.537 18.2024 384.663 18.2024ZM384.663 10.0291C383.021 10.0291 381.789 11.2552 381.789 12.8898C381.789 14.5245 383.021 15.7504 384.663 15.7504C386.305 15.7504 387.537 14.5245 387.537 12.8898C387.537 11.2552 386.305 10.0291 384.663 10.0291Z" fill="white" stroke="white" stroke-width="4"/>
</g>
</svg>
