<svg width="20" height="20" viewBox="0 0 20 20" fill="none" xmlns="http://www.w3.org/2000/svg">
<path d="M10 20C8.27688 20 6.875 18.5981 6.875 16.875V10.625C6.875 8.90188 8.27688 7.5 10 7.5C11.7231 7.5 13.125 8.90188 13.125 10.625V16.875C13.125 18.5981 11.7231 20 10 20ZM10 8.75C8.96613 8.75 8.125 9.59113 8.125 10.625V16.875C8.125 17.9089 8.96613 18.75 10 18.75C11.0339 18.75 11.875 17.9089 11.875 16.875V10.625C11.875 9.59113 11.0339 8.75 10 8.75Z" fill="white"/>
<path d="M10 6.25C8.27688 6.25 6.875 4.84812 6.875 3.125C6.875 1.40188 8.27688 0 10 0C11.7231 0 13.125 1.40188 13.125 3.125C13.125 4.84812 11.7231 6.25 10 6.25ZM10 1.25C8.96613 1.25 8.125 2.09113 8.125 3.125C8.125 4.15887 8.96613 5 10 5C11.0339 5 11.875 4.15887 11.875 3.125C11.875 2.09113 11.0339 1.25 10 1.25Z" fill="white"/>
</svg>
