<svg width="20" height="20" viewBox="0 0 20 20" fill="none" xmlns="http://www.w3.org/2000/svg">
<path d="M6.22656 9.6875C7.34192 9.6875 8.24609 8.7832 8.24609 7.66797C8.24609 6.55261 7.34192 5.64844 6.22656 5.64844C5.11121 5.64844 4.20703 6.55261 4.20703 7.66797C4.2085 8.78271 5.11182 9.68604 6.22656 9.6875ZM6.22656 6.43359C6.9104 6.43359 7.46484 6.98792 7.46484 7.67188C7.46484 8.35571 6.9104 8.91016 6.22656 8.91016C5.5426 8.91016 4.98828 8.35571 4.98828 7.67188C4.98853 6.98804 5.54272 6.43384 6.22656 6.43359Z" fill="white"/>
<path d="M6.22656 10.4336C5.40027 10.4275 4.60718 10.7592 4.03125 11.3516C3.44531 11.9492 3.125 12.7617 3.125 13.6445C3.12561 13.86 3.30017 14.0345 3.51562 14.0352H8.9375C9.15295 14.0345 9.32751 13.86 9.32812 13.6445C9.32812 12.7617 9.00781 11.9492 8.42188 11.3516C7.84595 10.7592 7.05298 10.4275 6.22656 10.4336ZM3.93359 13.2539C4.00049 12.7432 4.23071 12.2678 4.58984 11.8984C5.02209 11.4611 5.61157 11.2148 6.22656 11.2148C6.84155 11.2148 7.43103 11.4611 7.86328 11.8984C8.22168 12.2682 8.4519 12.7434 8.51953 13.2539H3.93359Z" fill="white"/>
<path d="M17.4219 2.92969H2.57812C1.49963 2.93018 0.625488 3.80432 0.625 4.88281V14.8047C0.625488 15.8832 1.49963 16.7573 2.57812 16.7578H17.4219C18.5004 16.7573 19.3745 15.8832 19.375 14.8047V4.88281C19.3745 3.80432 18.5004 2.93018 17.4219 2.92969ZM18.5938 14.8047C18.5919 15.451 18.0682 15.9747 17.4219 15.9766H2.57812C1.93176 15.9747 1.40808 15.451 1.40625 14.8047V4.88281C1.40808 4.23645 1.93176 3.71277 2.57812 3.71094H17.4219C18.0682 3.71277 18.5919 4.23645 18.5938 4.88281V14.8047Z" fill="white"/>
<path d="M16.4609 9.45312H11.9102C11.6945 9.45312 11.5195 9.62793 11.5195 9.84375C11.5195 10.0596 11.6945 10.2344 11.9102 10.2344H16.4609C16.6766 10.2344 16.8516 10.0596 16.8516 9.84375C16.8516 9.62793 16.6766 9.45312 16.4609 9.45312Z" fill="white"/>
<path d="M16.4609 11.9531H11.9102C11.6945 11.9531 11.5195 12.1279 11.5195 12.3438C11.5195 12.5596 11.6945 12.7344 11.9102 12.7344H16.4609C16.6766 12.7344 16.8516 12.5596 16.8516 12.3438C16.8516 12.1279 16.6766 11.9531 16.4609 11.9531Z" fill="white"/>
<path d="M16.4609 6.95312H11.9102C11.6945 6.95312 11.5195 7.12793 11.5195 7.34375C11.5195 7.55957 11.6945 7.73438 11.9102 7.73438H16.4609C16.6766 7.73438 16.8516 7.55957 16.8516 7.34375C16.8516 7.12793 16.6766 6.95312 16.4609 6.95312Z" fill="white"/>
</svg>
