<svg width="20" height="20" viewBox="0 0 20 20" fill="none" xmlns="http://www.w3.org/2000/svg">
<g clip-path="url(#clip0)">
<path d="M19.2501 10.7499H0.75C0.335999 10.7499 0 10.4139 0 9.99992C0 9.58593 0.335999 9.24994 0.75 9.24994H19.2501C19.6641 9.24994 20.0001 9.58593 20.0001 9.99992C20.0001 10.4139 19.6641 10.7499 19.2501 10.7499Z" fill="white"/>
<path d="M9.99998 20.0001C9.58599 20.0001 9.25 19.6641 9.25 19.2501V0.75C9.25 0.335999 9.58599 0 9.99998 0C10.414 0 10.75 0.335999 10.75 0.75V19.2501C10.75 19.6641 10.414 20.0001 9.99998 20.0001Z" fill="white"/>
</g>
<defs>
<clipPath id="clip0">
<rect width="20" height="20" fill="white"/>
</clipPath>
</defs>
</svg>
