<svg width="1894" height="1159" viewBox="0 0 1894 1159" fill="none" xmlns="http://www.w3.org/2000/svg">
<g style="mix-blend-mode:multiply" opacity="0.65">
<g style="mix-blend-mode:multiply" opacity="0.65">
<path d="M1296.4 379.142C1354.33 468.221 1374.74 584.748 1367.86 705.208C1361.3 826.679 1326.78 951.739 1245.62 1027.14C1164.8 1103.56 1038.37 1129.98 913.323 1145.31C788.613 1161.64 664.623 1166.54 552.607 1126.05C439.579 1085.89 337.513 1000.67 273.614 890.028C210.05 780.398 184.655 645.339 200.01 513.135C215.364 380.929 272.482 251.246 369.433 184.655C466.724 117.392 604.522 113.56 724.084 120.763C843.978 128.979 945.97 149.238 1044.51 189.677C1143.05 230.116 1238.15 290.734 1296.4 379.142Z" fill="#314C4F"/>
</g>
<g style="mix-blend-mode:multiply" opacity="0.65">
<path d="M544.764 667.966C550.768 590.723 659.707 375.759 765.272 312.073C808.714 171.936 922.42 107.994 974.333 188.673C1038.22 126.359 1160.15 121.474 1223.86 107.994C1286.26 94.3707 1354.18 155.293 1435.85 188.673C1516.69 222.625 1612.11 228.465 1681.61 272.398C1750.3 316.899 1792.59 398.776 1783.15 481.583C1773.69 564.391 1859.5 681.242 1831.38 800.294C1804.1 918.774 1660.77 1039.88 1592.04 1081.2C1524.12 1121.95 1381.37 1051.5 1249.42 1056.17C1117.46 1060.85 996.295 1140.65 922.42 1121.99C848.048 1102.61 822.284 984.913 745.374 895.278C668.462 805.643 539.084 743.924 544.764 667.966Z" fill="#314C4F"/>
</g>
<g style="mix-blend-mode:multiply" opacity="0.65">
<path d="M396.339 667.966C402.344 590.723 511.283 375.759 616.848 312.073C660.288 171.936 773.996 107.994 825.907 188.673C889.793 126.359 1011.72 121.474 1075.44 107.994C1137.84 94.3707 1205.76 155.293 1287.42 188.673C1368.27 222.625 1463.69 228.465 1533.2 272.398C1601.88 316.899 1644.17 398.776 1634.72 481.583C1625.27 564.391 1711.08 681.242 1682.96 800.294C1655.68 918.774 1512.34 1039.88 1443.62 1081.2C1375.7 1121.95 1232.95 1051.5 1100.99 1056.17C969.034 1060.85 847.87 1140.65 773.996 1121.99C699.625 1102.61 673.86 984.913 596.948 895.278C520.037 805.643 390.66 743.924 396.339 667.966Z" fill="#314C4F"/>
</g>
<g style="mix-blend-mode:multiply" opacity="0.65">
<path d="M1681.21 510.339C1684.3 587.754 1601.26 813.967 1503.88 889.547C1477.13 1033.8 1371.69 1110.58 1310.69 1036.52C1254.53 1105.87 1134.01 1124.96 1072.31 1145.79C1011.93 1166.61 937.351 1114.04 852.336 1090.42C768.073 1066.15 672.627 1071.49 598.453 1035.98C525.027 999.807 473.448 923.43 473.138 840.087C472.828 756.746 373.946 650.717 387.927 529.198C401.161 408.342 529.335 271.326 592.761 222.264C655.438 173.865 805.455 227.155 935.961 207.097C1066.47 187.041 1177.46 93.6358 1253.01 103.543C1329.14 114.1 1368.5 227.981 1455.37 308.018C1542.25 388.055 1677.97 434.238 1681.21 510.339Z" fill="#314C4F"/>
</g>
<g style="mix-blend-mode:multiply" opacity="0.65">
<path d="M1893.07 518.569C1896.13 595.984 1813.11 822.197 1715.72 897.777C1688.98 1042.03 1583.53 1118.81 1522.53 1044.75C1466.39 1114.1 1345.86 1133.19 1284.16 1154.02C1223.78 1174.84 1149.2 1122.27 1064.19 1098.65C979.922 1074.38 884.477 1079.72 810.301 1044.21C736.875 1008.04 685.296 931.66 684.987 848.318C684.677 764.975 585.794 658.945 599.777 537.428C613.01 416.572 741.183 279.556 804.609 230.494C867.286 182.095 1017.3 235.385 1147.81 215.327C1278.32 195.27 1389.31 101.866 1464.86 111.771C1540.98 122.33 1580.35 236.209 1667.23 316.246C1754.11 396.284 1889.81 442.468 1893.07 518.569Z" fill="#314C4F"/>
</g>
<g style="mix-blend-mode:multiply" opacity="0.65">
<path d="M1311.47 487.297C1314.54 564.711 1231.51 790.925 1134.12 866.503C1107.38 1010.75 1001.94 1087.54 940.94 1013.48C884.785 1082.82 764.266 1101.92 702.563 1122.75C642.187 1143.56 567.603 1091 482.589 1067.38C398.323 1043.11 302.879 1048.45 228.705 1012.94C155.279 976.765 103.7 900.388 103.39 817.045C103.08 733.702 4.19809 627.673 18.1794 506.156C31.4125 385.3 159.587 248.284 223.013 199.222C285.69 150.821 435.707 204.112 566.213 184.055C696.718 163.998 807.711 70.5931 883.265 80.4994C959.394 91.0576 998.755 204.937 1085.63 284.974C1172.5 365.011 1308.22 411.195 1311.47 487.297Z" fill="#314C4F"/>
</g>
<g style="mix-blend-mode:multiply" opacity="0.65">
<path d="M228.403 1025.85C168.3 983.101 53.6465 798.059 61.4849 690.742C-28.9889 589.866 -16.7159 476.589 79.2489 479.567C64.4424 402.786 129.974 313.019 155.234 260.67C179.624 209.192 268.47 190.87 342.509 148.99C416.548 107.981 475.781 42.5446 551.562 14.6244C627.343 -12.423 718.803 -1.95289 781.518 46.0346C844.235 94.0222 989.277 90.7374 1071.16 170.134C1153.03 248.661 1170.88 411.613 1165.65 481.412C1160.43 550.34 1021.06 617.523 949.631 714.37C878.206 811.218 874.721 937.73 817.232 981.356C758.872 1024.98 647.378 984.846 529.786 995.315C412.194 1005.79 287.634 1067.73 228.403 1025.85Z" fill="#314C4F"/>
</g>
<g style="mix-blend-mode:multiply" opacity="0.65">
<path d="M312.43 1055.48C252.328 1012.73 137.674 827.686 145.512 720.369C55.0385 619.493 67.3114 506.215 163.276 509.194C148.47 432.413 214.001 342.646 239.261 290.296C263.652 238.819 352.497 220.497 426.537 178.616C500.576 137.608 559.808 72.1712 635.59 44.2511C711.371 17.2036 802.83 27.6737 865.546 75.6613C928.262 123.649 1073.3 120.364 1155.18 199.761C1237.06 278.287 1254.91 441.239 1249.68 511.038C1244.45 579.967 1105.09 647.15 1033.66 743.996C962.233 840.845 958.749 967.356 901.26 1010.98C842.899 1054.61 731.405 1014.47 613.813 1024.94C496.221 1035.41 371.661 1097.36 312.43 1055.48Z" fill="#314C4F"/>
</g>
</g>
</svg>
