<svg width="1187" height="577" viewBox="0 0 1187 577" fill="none" xmlns="http://www.w3.org/2000/svg">
<path d="M305.152 0H755.919V262.656H305.152V0Z" fill="#263238"/>
<path d="M720.673 249.587C720.886 249.587 721.1 195.88 721.1 129.622C721.1 63.364 720.886 9.68738 720.673 9.68738C720.46 9.68738 720.216 63.364 720.216 129.622C720.216 195.88 720.429 249.587 720.673 249.587Z" fill="#E0E0E0"/>
<path d="M720.673 249.8C720.673 249.8 720.947 249.8 721.008 249.343C721.008 248.46 721.161 246.145 721.221 240.204C721.282 234.264 721.221 225.338 721.221 214.493C721.221 191.828 721.221 161.7 721.221 129.683C721.221 97.6658 721.221 67.507 721.221 44.8422C721.221 33.9972 721.221 25.1933 721.221 19.1311C721.221 13.0689 721.221 10.7536 721.008 9.99205C721.008 9.50464 720.825 9.50464 720.673 9.50464C720.521 9.50464 720.399 9.50464 720.308 9.99205C720.308 10.8755 720.155 13.0384 720.125 19.1311C720.094 25.2238 720.125 33.9972 719.972 44.8422C719.972 67.507 719.972 97.6354 719.972 129.683C719.972 161.73 719.972 191.828 719.972 214.493C719.972 225.338 719.972 234.112 720.125 240.204C720.277 246.297 720.125 248.582 720.308 249.343C720.399 249.8 720.49 249.8 720.673 249.8ZM720.673 73.1123C720.673 89.9586 720.673 109.151 720.673 129.409C720.673 149.667 720.673 168.828 720.673 185.675C720.673 168.828 720.673 149.636 720.673 129.409C720.673 109.181 720.643 90.05 720.673 73.2037V73.1123Z" fill="#E0E0E0"/>
<path d="M729.934 19.649C734.894 20.2176 739.902 20.2176 744.861 19.649C739.902 19.0804 734.894 19.0804 729.934 19.649Z" fill="#E0E0E0"/>
<path d="M737.398 20.4714C745.227 20.4714 745.227 20.0145 745.227 19.6489C745.227 19.2834 745.227 18.8264 737.398 18.8264C729.569 18.8264 729.538 19.2834 729.538 19.6489C729.538 20.0145 729.538 20.4714 737.398 20.4714ZM740.931 19.6489H737.398H733.864H737.398H740.931Z" fill="#E0E0E0"/>
<path d="M729.934 35.4594C734.894 36.028 739.902 36.028 744.861 35.4594C739.902 34.8908 734.894 34.8908 729.934 35.4594Z" fill="#E0E0E0"/>
<path d="M737.398 36.3428C745.227 36.3428 745.227 35.9163 745.227 35.5508C745.227 35.1852 745.227 34.7283 737.398 34.7283C729.569 34.7283 729.538 35.1852 729.538 35.5508C729.538 35.9163 729.538 36.3428 737.398 36.3428ZM740.962 35.5508H733.833H737.398H740.962Z" fill="#E0E0E0"/>
<path d="M729.934 51.2699C734.894 51.8385 739.902 51.8385 744.861 51.2699C739.902 50.7014 734.894 50.7014 729.934 51.2699Z" fill="#E0E0E0"/>
<path d="M737.398 52.062C745.227 52.062 745.227 51.6355 745.227 51.2699C745.227 50.9044 745.227 50.4474 737.398 50.4474C729.569 50.4474 729.538 50.9044 729.538 51.2699C729.538 51.6355 729.538 52.062 737.398 52.062ZM740.931 51.2699H733.864H737.398H740.931Z" fill="#E0E0E0"/>
<path d="M729.934 67.0804C734.894 67.649 739.902 67.649 744.861 67.0804C739.904 66.4711 734.891 66.4711 729.934 67.0804Z" fill="#E0E0E0"/>
<path d="M737.398 67.8725C745.227 67.8725 745.227 67.4155 745.227 67.0804C745.227 66.7453 745.227 66.2579 737.398 66.2579C729.569 66.2579 729.538 66.7149 729.538 67.0804C729.538 67.446 729.538 67.8725 737.398 67.8725ZM740.931 67.0804H733.864H737.398H740.931Z" fill="#E0E0E0"/>
<path d="M729.934 82.891C734.894 83.4596 739.902 83.4596 744.861 82.891C739.904 82.2816 734.891 82.2816 729.934 82.891Z" fill="#E0E0E0"/>
<path d="M737.398 83.683C745.227 83.683 745.227 83.2261 745.227 82.891C745.227 82.5559 745.227 82.0685 737.398 82.0685C729.569 82.0685 729.538 82.5254 729.538 82.891C729.538 83.2565 729.538 83.683 737.398 83.683ZM740.962 82.891H733.833C734.839 82.891 736.027 82.891 737.398 82.891C738.769 82.891 739.957 82.8301 740.962 82.891Z" fill="#E0E0E0"/>
<path d="M729.934 98.6711C734.891 99.2804 739.904 99.2804 744.861 98.6711C739.902 98.1025 734.894 98.1025 729.934 98.6711Z" fill="#E0E0E0"/>
<path d="M737.398 99.4936C745.227 99.4936 745.227 99.0366 745.227 98.6711C745.227 98.3055 745.227 97.879 737.398 97.879C729.569 97.879 729.538 98.336 729.538 98.6711C729.538 99.0062 729.538 99.4936 737.398 99.4936ZM740.962 98.6711H737.398H733.833H740.962Z" fill="#E0E0E0"/>
<path d="M729.934 114.482C734.891 115.091 739.904 115.091 744.861 114.482C739.902 113.913 734.894 113.913 729.934 114.482Z" fill="#E0E0E0"/>
<path d="M737.398 115.304C745.227 115.304 745.227 114.847 745.227 114.482C745.227 114.116 745.227 113.69 737.398 113.69C729.569 113.69 729.538 114.116 729.538 114.482C729.538 114.847 729.538 115.304 737.398 115.304ZM740.931 114.482H737.398H733.864H740.931Z" fill="#E0E0E0"/>
<path d="M729.934 130.292C734.894 130.861 739.902 130.861 744.861 130.292C739.902 129.724 734.894 129.724 729.934 130.292Z" fill="#E0E0E0"/>
<path d="M737.398 131.115C745.227 131.115 745.227 130.658 745.227 130.292C745.227 129.926 745.227 129.5 737.398 129.5C729.569 129.5 729.538 129.926 729.538 130.292C729.538 130.658 729.538 131.115 737.398 131.115ZM740.962 130.292H737.398H733.833H740.962Z" fill="#E0E0E0"/>
<path d="M729.934 146.011C734.894 146.58 739.902 146.58 744.861 146.011C739.902 145.443 734.894 145.443 729.934 146.011Z" fill="#E0E0E0"/>
<path d="M737.398 146.925C745.227 146.925 745.227 146.468 745.227 146.103C745.227 145.737 745.227 145.28 737.398 145.28C729.569 145.28 729.538 145.737 729.538 146.103C729.538 146.468 729.538 146.925 737.398 146.925ZM740.962 146.011H737.398H733.833H737.398H740.962Z" fill="#E0E0E0"/>
<path d="M729.934 161.913C734.894 162.482 739.902 162.482 744.861 161.913C739.902 161.345 734.894 161.345 729.934 161.913Z" fill="#E0E0E0"/>
<path d="M737.398 162.736C745.227 162.736 745.227 162.279 745.227 161.913C745.227 161.548 745.227 161.091 737.398 161.091C729.569 161.091 729.538 161.548 729.538 161.913C729.538 162.279 729.538 162.736 737.398 162.736ZM740.931 161.913H737.398H733.864H737.398H740.931Z" fill="#E0E0E0"/>
<path d="M729.934 177.724C734.894 178.292 739.902 178.292 744.861 177.724C739.902 177.155 734.894 177.155 729.934 177.724Z" fill="#E0E0E0"/>
<path d="M737.398 178.546C745.227 178.546 745.227 178.089 745.227 177.724C745.227 177.358 745.227 176.901 737.398 176.901C729.569 176.901 729.538 177.358 729.538 177.724C729.538 178.089 729.538 178.546 737.398 178.546ZM740.962 177.724H737.398H733.833H737.398H740.962Z" fill="#E0E0E0"/>
<path d="M729.934 193.534C734.894 194.103 739.902 194.103 744.861 193.534C739.902 192.966 734.894 192.966 729.934 193.534Z" fill="#E0E0E0"/>
<path d="M737.398 194.357C745.227 194.357 745.227 193.9 745.227 193.534C745.227 193.169 745.227 192.712 737.398 192.712C729.569 192.712 729.538 193.169 729.538 193.534C729.538 193.9 729.538 194.357 737.398 194.357ZM740.931 193.534H737.398H733.864H737.398H740.931Z" fill="#E0E0E0"/>
<path d="M729.934 209.345C734.894 209.913 739.902 209.913 744.861 209.345C739.902 208.776 734.894 208.776 729.934 209.345Z" fill="#E0E0E0"/>
<path d="M737.398 210.167C745.227 210.167 745.227 209.71 745.227 209.345C745.227 208.979 745.227 208.522 737.398 208.522C729.569 208.522 729.538 208.979 729.538 209.345C729.538 209.71 729.538 210.167 737.398 210.167ZM740.931 209.345H737.398H733.864H737.398H740.931Z" fill="#E0E0E0"/>
<path d="M729.934 225.216C734.894 225.785 739.902 225.785 744.861 225.216C739.902 224.648 734.894 224.648 729.934 225.216Z" fill="#E0E0E0"/>
<path d="M737.398 225.947C745.227 225.947 745.227 225.521 745.227 225.155C745.227 224.79 745.227 224.333 737.398 224.333C729.569 224.333 729.538 224.79 729.538 225.155C729.538 225.521 729.538 225.947 737.398 225.947ZM740.962 225.155H733.833H737.398H740.962Z" fill="#E0E0E0"/>
<path d="M729.934 240.966C734.894 241.534 739.902 241.534 744.861 240.966C739.902 240.397 734.894 240.397 729.934 240.966Z" fill="#E0E0E0"/>
<path d="M737.398 241.758C745.227 241.758 745.227 241.331 745.227 240.966C745.227 240.6 745.227 240.143 737.398 240.143C729.569 240.143 729.538 240.6 729.538 240.966C729.538 241.331 729.538 241.758 737.398 241.758ZM740.931 240.966H733.864H737.398H740.931Z" fill="#E0E0E0"/>
<path d="M670.104 18.7046C670.104 18.9483 678.756 19.131 689.479 19.131C700.202 19.131 708.823 18.9483 708.823 18.7046C708.823 18.4609 700.171 18.2781 689.479 18.2781C678.786 18.2781 670.104 18.4609 670.104 18.7046Z" fill="#4A669C"/>
<path d="M689.387 19.527C709.127 19.527 709.127 19.131 709.127 18.7045C709.127 18.278 709.127 17.9125 689.387 17.9125C669.647 17.9125 669.616 18.3085 669.616 18.7045C669.616 19.1005 669.708 19.527 689.387 19.527ZM698.526 18.7045H689.387H680.248H698.526Z" fill="#4A669C"/>
<path d="M670.104 240.966C670.104 241.179 678.756 241.392 689.479 241.392C700.202 241.392 708.823 241.179 708.823 240.966C708.823 240.753 700.171 240.539 689.479 240.539C678.786 240.539 670.104 240.722 670.104 240.966Z" fill="#4A669C"/>
<path d="M689.387 241.758C709.127 241.758 709.127 241.362 709.127 240.966C709.127 240.57 709.127 240.143 689.387 240.143C669.647 240.143 669.616 240.539 669.616 240.966C669.616 241.392 669.708 241.758 689.387 241.758ZM698.526 240.966H680.248H689.387H698.526Z" fill="#4A669C"/>
<path d="M616.275 51.27C616.275 51.5137 632.482 51.6965 652.496 51.6965C672.511 51.6965 688.748 51.5137 688.748 51.27C688.748 51.0263 672.511 50.8435 652.496 50.8435C632.482 50.8435 616.275 51.0263 616.275 51.27Z" fill="#4A669C"/>
<path d="M652.374 52.062C662.062 52.062 671.17 52.062 678.024 52.062C689.022 52.062 689.022 51.9097 689.022 51.3918C689.022 50.874 689.022 50.813 678.024 50.6912C671.17 50.6912 662.092 50.6912 652.374 50.6912C642.656 50.6912 633.578 50.6912 626.754 50.6912C615.757 50.6912 615.757 50.874 615.757 51.3918C615.757 51.9097 615.757 51.9402 626.754 52.062C633.609 52.0316 642.717 52.062 652.374 52.062ZM669.525 51.27H635.223H652.374H669.525Z" fill="#4A669C"/>
<path d="M532.318 51.27C532.318 51.5137 548.555 51.6965 568.569 51.6965C588.584 51.6965 604.821 51.5137 604.821 51.27C604.821 51.0263 588.584 50.8435 568.569 50.8435C548.555 50.8435 532.318 51.0263 532.318 51.27Z" fill="#E0E0E0"/>
<path d="M568.569 52.062C578.257 52.062 587.365 52.062 594.189 52.062C605.186 52.062 605.186 51.9097 605.186 51.3918C605.186 50.874 605.186 50.813 594.189 50.6912C587.365 50.6912 578.257 50.6912 568.569 50.6912C558.882 50.6912 549.773 50.6912 542.949 50.6912C531.952 50.6912 531.952 50.874 531.952 51.3918C531.952 51.9097 531.952 51.9402 542.949 52.062C549.773 52.0316 558.882 52.062 568.569 52.062ZM585.812 51.27H551.51H568.661H585.812Z" fill="#E0E0E0"/>
<path d="M564.487 67.0805C564.487 67.2937 588.401 67.507 617.89 67.507C647.378 67.507 671.109 67.2937 671.109 67.0805C671.109 66.8672 647.226 66.6235 617.707 66.6235C588.188 66.6235 564.487 66.8063 564.487 67.0805Z" fill="#E0E0E0"/>
<path d="M617.768 67.8726C632.025 67.8726 645.459 67.8726 655.542 67.8726C671.566 67.8726 671.566 67.8726 671.566 67.2024C671.566 66.5322 671.566 66.6236 655.542 66.5017C645.459 66.5017 632.025 66.5017 617.768 66.5017C603.511 66.5017 590.107 66.5017 579.993 66.5017C563.969 66.5017 563.969 66.5017 563.969 67.2024C563.969 67.903 563.969 67.7507 579.993 67.8726C590.107 67.8421 603.511 67.8726 617.768 67.8726ZM643.052 67.0805H592.483H617.768H643.052Z" fill="#E0E0E0"/>
<path d="M564.487 82.891C564.487 83.1043 588.401 83.3175 617.89 83.3175C647.378 83.3175 671.109 83.1043 671.109 82.891C671.109 82.6778 647.226 82.4341 617.707 82.4341C588.188 82.4341 564.487 82.6473 564.487 82.891Z" fill="#E0E0E0"/>
<path d="M617.768 83.683C632.055 83.683 645.459 83.683 655.542 83.683C671.566 83.683 671.566 83.683 671.566 83.0128C671.566 82.3426 671.566 82.434 655.542 82.3121C645.459 82.3121 632.025 82.3121 617.768 82.3121C603.511 82.3121 590.107 82.3121 579.993 82.3121C563.969 82.3121 563.969 82.3121 563.969 83.0128C563.969 83.7135 563.969 83.5611 579.993 83.683C590.076 83.6525 603.511 83.683 617.768 83.683ZM643.205 82.8909H592.331C599.642 82.8909 608.202 82.8909 617.768 82.8909C627.333 82.8909 635.893 82.83 643.205 82.8909Z" fill="#E0E0E0"/>
<path d="M490.827 130.292C490.827 130.536 514.74 130.719 544.229 130.719C573.718 130.719 597.662 130.536 597.662 130.292C597.662 130.048 573.748 129.866 544.229 129.866C514.71 129.866 490.827 130.048 490.827 130.292Z" fill="#E0E0E0"/>
<path d="M544.229 131.115C558.516 131.115 571.92 131.115 582.004 131.115C597.997 130.78 597.997 130.78 597.997 130.292C597.997 129.805 597.997 129.744 581.973 129.622C571.89 129.622 558.486 129.622 544.199 129.622C529.911 129.622 516.538 129.622 506.424 129.622C490.4 129.622 490.4 129.622 490.4 130.292C490.4 130.962 490.4 130.871 506.424 130.993C516.538 131.084 529.972 131.115 544.229 131.115ZM569.666 130.292H544.229H518.823H569.666Z" fill="#E0E0E0"/>
<path d="M522.569 98.6711C522.569 98.9148 546.483 99.1281 575.972 99.1281C605.46 99.1281 629.374 98.9148 629.374 98.6711C629.374 98.4274 605.46 98.2446 575.972 98.2446C546.483 98.2446 522.569 98.4579 522.569 98.6711Z" fill="#E0E0E0"/>
<path d="M575.972 99.4935C590.229 99.4935 603.663 99.4935 613.747 99.4935C629.77 99.4935 629.77 99.4935 629.77 98.7929C629.77 98.0922 629.77 98.2445 613.747 98.1227C603.633 98.1227 590.229 98.1227 575.972 98.1227C561.715 98.1227 548.311 98.1227 538.197 98.1227C522.173 98.1227 522.173 98.275 522.173 98.7929C522.173 99.3108 522.173 99.3717 538.197 99.4935C548.281 99.4631 561.715 99.4935 575.972 99.4935ZM601.409 98.671H575.972H550.535H601.409Z" fill="#E0E0E0"/>
<path d="M392.003 98.6711C392.003 98.9148 415.917 99.1281 445.436 99.1281C474.955 99.1281 498.839 98.9148 498.839 98.6711C498.839 98.4274 474.925 98.2446 445.436 98.2446C415.948 98.2446 392.003 98.4579 392.003 98.6711Z" fill="#E0E0E0"/>
<path d="M445.436 99.4935C459.693 99.4935 473.097 99.4935 483.211 99.4935C499.234 99.4935 499.234 99.4935 499.234 98.7929C499.234 98.0922 499.234 98.2445 483.211 98.1227C473.097 98.1227 459.693 98.1227 445.436 98.1227C431.179 98.1227 417.775 98.1227 407.661 98.1227C391.638 98.1227 391.638 98.275 391.638 98.7929C391.638 99.3108 391.638 99.3717 407.661 99.4935C417.745 99.4631 431.149 99.4935 445.436 99.4935ZM470.843 98.671H445.436H419.999H470.843Z" fill="#E0E0E0"/>
<path d="M437.424 67.0805C437.424 67.2937 461.338 67.507 490.827 67.507C520.315 67.507 544.229 67.2937 544.229 67.0805C544.229 66.8672 520.315 66.6235 490.827 66.6235C461.338 66.6235 437.424 66.8063 437.424 67.0805Z" fill="#E0E0E0"/>
<path d="M490.827 67.8726C505.083 67.8726 518.518 67.8726 528.601 67.8726C544.625 67.8726 544.625 67.8726 544.625 67.2024C544.625 66.5322 544.625 66.6236 528.601 66.5017C518.518 66.5017 505.083 66.5017 490.827 66.5017C476.57 66.5017 463.135 66.5017 453.052 66.5017C437.028 66.5017 437.028 66.5017 437.028 67.2024C437.028 67.903 437.028 67.7507 453.052 67.8726C463.135 67.8421 476.57 67.8726 490.827 67.8726ZM516.111 67.0805H465.542H490.827H516.111Z" fill="#E0E0E0"/>
<path d="M363.611 130.292C363.611 130.536 387.525 130.719 417.044 130.719C446.563 130.719 470.447 130.536 470.447 130.292C470.447 130.048 446.533 129.866 417.044 129.866C387.556 129.866 363.611 130.048 363.611 130.292Z" fill="#E0E0E0"/>
<path d="M417.044 131.115C431.301 131.115 444.736 131.115 454.819 131.115C470.843 131.115 470.843 130.932 470.843 130.414C470.843 129.896 470.843 129.866 454.819 129.744C444.705 129.744 431.301 129.744 417.044 129.744C402.787 129.744 389.353 129.744 379.27 129.744C363.246 129.744 363.246 129.744 363.246 130.414C363.246 131.084 363.246 130.993 379.27 131.115C389.353 131.084 402.757 131.115 417.044 131.115ZM442.451 130.292H417.044H391.607H442.451Z" fill="#E0E0E0"/>
<path d="M378.356 82.891C378.356 83.1043 415.491 83.3175 461.308 83.3175C507.125 83.3175 544.229 83.1043 544.229 82.891C544.229 82.6778 507.125 82.4341 461.308 82.4341C415.491 82.4341 378.356 82.6473 378.356 82.891Z" fill="#455A64"/>
<path d="M461.308 83.6831C483.455 83.6831 504.292 83.6831 519.95 83.6831C537.527 83.6831 542.584 83.6831 544.046 83.348C544.534 83.348 544.534 83.1652 544.534 83.0434C544.534 82.9215 544.534 82.7692 544.046 82.7083C542.584 82.495 537.527 82.4646 519.95 82.3732C504.292 82.3732 483.394 82.3732 461.308 82.3732C439.222 82.3732 418.324 82.3732 402.635 82.3732C385.058 82.3732 380.001 82.3732 378.569 82.7083C378.112 82.7083 378.112 82.8911 378.112 83.0434C378.112 83.1957 378.112 83.2871 378.569 83.348C380.001 83.5612 385.058 83.5917 402.635 83.6831C418.263 83.6526 439.13 83.6831 461.308 83.6831ZM500.514 82.891H422.223C433.921 82.891 447.264 82.891 461.369 82.891C475.473 82.891 488.725 82.8301 500.514 82.891Z" fill="#455A64"/>
<path d="M670.104 35.4594C670.104 35.7032 678.756 35.8859 689.479 35.8859C700.202 35.8859 708.823 35.7032 708.823 35.4594C708.823 35.2157 700.171 35.033 689.479 35.033C678.786 35.033 670.104 35.2157 670.104 35.4594Z" fill="#E0E0E0"/>
<path d="M689.387 36.3428C709.127 36.3428 709.127 35.9773 709.127 35.5508C709.127 35.1243 709.127 34.7283 689.387 34.7283C669.647 34.7283 669.616 35.1243 669.616 35.5508C669.616 35.9773 669.708 36.3428 689.387 36.3428ZM698.526 35.5508H680.248H689.387H698.526Z" fill="#E0E0E0"/>
<path d="M670.104 225.216C670.104 225.46 678.756 225.643 689.479 225.643C700.202 225.643 708.823 225.46 708.823 225.216C708.823 224.972 700.171 224.79 689.479 224.79C678.786 224.79 670.104 224.912 670.104 225.216Z" fill="#E0E0E0"/>
<path d="M689.387 225.947C709.127 225.947 709.127 225.551 709.127 225.155C709.127 224.759 709.127 224.333 689.387 224.333C669.647 224.333 669.616 224.729 669.616 225.155C669.616 225.582 669.708 225.947 689.387 225.947ZM698.526 225.155H680.248H689.387H698.526Z" fill="#E0E0E0"/>
<path d="M650.912 98.6711C650.912 98.9148 659.563 99.1281 670.287 99.1281C681.01 99.1281 689.631 98.9148 689.631 98.6711C689.631 98.4274 680.979 98.2446 670.287 98.2446C659.594 98.2446 650.912 98.4579 650.912 98.6711Z" fill="#E0E0E0"/>
<path d="M670.287 99.4936C690.027 99.4936 690.027 99.0976 690.027 98.6711C690.027 98.2446 690.027 97.879 670.287 97.879C650.546 97.879 650.516 98.2751 650.516 98.6711C650.516 99.0671 650.516 99.4936 670.287 99.4936ZM679.426 98.6711H670.287H661.148H679.578H679.426Z" fill="#E0E0E0"/>
<path d="M340.398 98.6711C340.398 98.9148 349.08 99.1281 359.773 99.1281C370.465 99.1281 379.147 98.9148 379.147 98.6711C379.147 98.4274 370.465 98.2446 359.773 98.2446C349.08 98.2446 340.398 98.4579 340.398 98.6711Z" fill="#4A669C"/>
<path d="M359.773 99.4936C379.513 99.4936 379.513 99.0976 379.513 98.6711C379.513 98.2446 379.513 97.879 359.773 97.879C340.033 97.879 340.033 98.2751 340.033 98.6711C340.033 99.0671 340.033 99.4936 359.773 99.4936ZM368.912 98.6711H359.773H350.634H368.912Z" fill="#4A669C"/>
<path d="M616.275 161.822C616.275 162.065 632.482 162.248 652.496 162.248C672.511 162.248 688.748 162.065 688.748 161.822C688.748 161.578 672.511 161.395 652.496 161.395C632.482 161.395 616.275 161.578 616.275 161.822Z" fill="#4A669C"/>
<path d="M652.374 162.644C662.062 162.644 671.17 162.644 678.024 162.644C689.022 162.644 689.022 162.462 689.022 161.944C689.022 161.426 689.022 161.395 678.024 161.273C671.17 161.273 662.062 161.273 652.374 161.273C642.687 161.273 633.609 161.273 626.754 161.273C615.757 161.273 615.757 161.456 615.757 161.944C615.757 162.431 615.757 162.492 626.754 162.644C633.609 162.583 642.717 162.644 652.374 162.644ZM669.647 161.822H652.374H635.132H652.374H669.647Z" fill="#4A669C"/>
<path d="M532.318 161.822C532.318 162.065 548.555 162.248 568.569 162.248C588.584 162.248 604.821 162.065 604.821 161.822C604.821 161.578 588.584 161.395 568.569 161.395C548.555 161.395 532.318 161.578 532.318 161.822Z" fill="#E0E0E0"/>
<path d="M568.569 162.644C578.257 162.644 587.365 162.644 594.189 162.644C605.186 162.644 605.186 162.462 605.186 161.944C605.186 161.426 605.186 161.395 594.189 161.273C587.365 161.273 578.257 161.273 568.569 161.273C558.882 161.273 549.773 161.273 542.949 161.273C531.952 161.273 531.952 161.456 531.952 161.944C531.952 162.431 531.952 162.492 542.949 162.644C549.773 162.583 558.882 162.644 568.569 162.644ZM585.812 161.822H568.569H551.327H568.569H585.812Z" fill="#E0E0E0"/>
<path d="M564.487 177.632C564.487 177.876 588.401 178.059 617.89 178.059C647.378 178.059 671.292 177.876 671.292 177.632C671.292 177.389 647.409 177.206 617.89 177.206C588.371 177.206 564.487 177.389 564.487 177.632Z" fill="#E0E0E0"/>
<path d="M617.768 178.455C632.025 178.455 645.459 178.455 655.542 178.302C671.566 178.302 671.566 178.302 671.566 177.632C671.566 176.962 671.566 177.084 655.542 176.932C645.459 176.932 632.025 176.932 617.768 176.932C603.511 176.932 590.107 176.932 579.993 176.932C563.969 176.932 563.969 177.114 563.969 177.632C563.969 178.15 563.969 178.181 579.993 178.302C590.107 178.394 603.511 178.455 617.768 178.455ZM643.052 177.632H617.768H592.483H617.768H643.052Z" fill="#E0E0E0"/>
<path d="M564.487 193.443C564.487 193.687 588.401 193.869 617.89 193.869C647.378 193.869 671.292 193.687 671.292 193.443C671.292 193.199 647.409 193.016 617.89 193.016C588.371 193.016 564.487 193.199 564.487 193.443Z" fill="#E0E0E0"/>
<path d="M617.768 194.265C632.055 194.265 645.459 194.265 655.542 194.265C671.566 194.265 671.566 194.113 671.566 193.595C671.566 193.077 671.566 193.047 655.542 192.895C645.459 192.895 632.025 192.895 617.768 192.895C603.511 192.895 590.107 192.895 579.993 192.895C563.969 192.895 563.969 193.077 563.969 193.595C563.969 194.113 563.969 194.144 579.993 194.265C590.076 194.204 603.48 194.265 617.768 194.265ZM643.052 193.443H617.768H592.483H617.768H643.052Z" fill="#E0E0E0"/>
<path d="M522.569 209.253C522.569 209.497 546.483 209.68 575.972 209.68C605.46 209.68 629.374 209.497 629.374 209.253C629.374 209.01 605.46 208.827 575.972 208.827C546.483 208.827 522.569 209.01 522.569 209.253Z" fill="#E0E0E0"/>
<path d="M575.972 209.984C590.229 209.984 603.663 209.984 613.747 209.984C629.77 209.984 629.77 209.984 629.77 209.314C629.77 208.644 629.77 208.766 613.747 208.614C603.663 208.614 590.229 208.614 575.972 208.614C561.715 208.614 548.281 208.614 538.197 208.614C522.173 208.614 522.173 208.796 522.173 209.314C522.173 209.832 522.173 209.863 538.197 209.984C548.281 209.984 561.715 209.984 575.972 209.984ZM601.409 209.192H550.535H575.972H601.409Z" fill="#E0E0E0"/>
<path d="M392.003 209.253C392.003 209.497 415.917 209.68 445.436 209.68C474.955 209.68 498.839 209.497 498.839 209.253C498.839 209.01 474.925 208.827 445.436 208.827C415.948 208.827 392.003 209.01 392.003 209.253Z" fill="#E0E0E0"/>
<path d="M445.436 209.984C459.693 209.984 473.097 209.984 483.211 209.984C499.234 209.984 499.234 209.984 499.234 209.314C499.234 208.644 499.234 208.766 483.211 208.614C473.127 208.614 459.693 208.614 445.436 208.614C431.179 208.614 417.745 208.614 407.661 208.614C391.638 208.614 391.638 208.796 391.638 209.314C391.638 209.832 391.638 209.863 407.661 209.984C417.745 209.984 431.149 209.984 445.436 209.984ZM470.843 209.192H419.999H445.436H470.843Z" fill="#E0E0E0"/>
<path d="M437.424 177.632C437.424 177.876 461.338 178.059 490.827 178.059C520.315 178.059 544.229 177.876 544.229 177.632C544.229 177.389 520.315 177.206 490.827 177.206C461.338 177.206 437.424 177.389 437.424 177.632Z" fill="#E0E0E0"/>
<path d="M490.827 178.455C505.083 178.455 518.518 178.455 528.601 178.302C544.625 178.302 544.625 178.302 544.625 177.632C544.625 176.962 544.625 177.084 528.601 176.932C518.518 176.932 505.083 176.932 490.827 176.932C476.57 176.932 463.135 176.932 453.052 176.932C437.028 176.932 437.028 177.114 437.028 177.632C437.028 178.15 437.028 178.181 453.052 178.302C463.135 178.394 476.57 178.455 490.827 178.455ZM516.111 177.632H490.827H465.542H490.827H516.111Z" fill="#E0E0E0"/>
<path d="M378.356 193.443C378.356 193.687 415.491 193.869 461.308 193.869C507.125 193.869 544.229 193.687 544.229 193.443C544.229 193.199 507.125 193.016 461.308 193.016C415.491 193.016 378.356 193.199 378.356 193.443Z" fill="#455A64"/>
<path d="M461.308 194.265C483.485 194.265 504.322 194.265 519.95 194.265C537.527 194.265 542.584 194.265 544.046 193.93C544.534 193.93 544.534 193.747 544.534 193.595C544.534 193.443 544.534 193.351 544.046 193.26C542.584 193.077 537.527 193.016 519.95 192.925C504.292 192.925 483.394 192.925 461.308 192.925C439.222 192.925 418.324 192.925 402.635 192.925C385.058 192.925 380.001 192.925 378.569 193.26C378.112 193.26 378.112 193.443 378.112 193.595C378.112 193.747 378.112 193.839 378.569 193.93C380.001 194.143 385.058 194.174 402.635 194.265C418.263 194.204 439.13 194.265 461.308 194.265ZM500.209 193.443H461.308H422.375H461.308H500.209Z" fill="#455A64"/>
<path d="M650.912 209.253C650.912 209.497 659.563 209.68 670.287 209.68C681.01 209.68 689.631 209.497 689.631 209.253C689.631 209.01 680.979 208.827 670.287 208.827C659.594 208.827 650.912 209.01 650.912 209.253Z" fill="#E0E0E0"/>
<path d="M670.287 209.984C690.027 209.984 690.027 209.619 690.027 209.192C690.027 208.766 690.027 208.37 670.287 208.37C650.546 208.37 650.516 208.766 650.516 209.192C650.516 209.619 650.516 209.984 670.287 209.984ZM679.426 209.192H660.995H670.134H679.426Z" fill="#E0E0E0"/>
<path d="M340.398 209.253C340.398 209.497 349.08 209.68 359.773 209.68C370.465 209.68 379.147 209.497 379.147 209.253C379.147 209.01 370.465 208.827 359.773 208.827C349.08 208.827 340.398 209.01 340.398 209.253Z" fill="#4A669C"/>
<path d="M359.773 209.984C379.513 209.984 379.513 209.619 379.513 209.192C379.513 208.766 379.513 208.37 359.773 208.37C340.033 208.37 340.033 208.766 340.033 209.192C340.033 209.619 340.033 209.984 359.773 209.984ZM368.912 209.192H350.634H359.773H368.912Z" fill="#4A669C"/>
<path d="M-0.000305176 364.069H363.855V576.064H-0.000305176V364.069Z" fill="#263238"/>
<path d="M335.402 565.401C335.585 565.401 335.768 522.052 335.768 468.589C335.768 415.125 335.585 371.745 335.402 371.745C335.219 371.745 335.067 415.095 335.067 468.589C335.067 522.082 335.219 565.401 335.402 565.401Z" fill="#E0E0E0"/>
<path d="M335.402 565.706C335.555 565.706 335.616 565.706 335.677 565.34C335.677 564.64 335.676 562.751 335.829 557.846C335.981 552.942 335.829 545.874 335.829 537.101C335.829 518.823 335.829 494.452 335.829 468.649C335.829 442.847 335.829 418.476 335.829 400.168C335.829 391.394 335.829 384.327 335.829 379.422C335.829 374.517 335.829 372.629 335.677 371.928C335.677 371.563 335.676 371.562 335.402 371.562C335.128 371.562 335.189 371.563 335.128 371.928C335.128 372.629 335.128 374.517 335.128 379.422C335.128 384.327 335.128 391.394 335.128 400.168C335.128 418.446 335.128 442.817 335.128 468.649C335.128 494.482 335.128 518.792 335.128 537.101C335.128 545.874 335.128 552.942 335.128 557.846C335.128 562.751 335.128 564.64 335.128 565.34C335.189 565.706 335.28 565.706 335.402 565.706ZM335.402 423.137C335.402 436.754 335.402 452.23 335.402 468.589C335.402 484.947 335.402 500.423 335.402 514.01C335.402 500.423 335.402 484.917 335.402 468.589C335.402 452.26 335.372 436.754 335.402 423.229V423.137Z" fill="#E0E0E0"/>
<path d="M342.896 379.909C346.892 380.397 350.933 380.397 354.929 379.909C350.931 379.463 346.895 379.463 342.896 379.909Z" fill="#E0E0E0"/>
<path d="M348.898 380.58C355.234 380.58 355.234 380.214 355.234 379.909C355.234 379.605 355.234 379.27 348.898 379.27C342.561 379.27 342.592 379.635 342.592 379.909C342.592 380.184 342.592 380.58 348.898 380.58ZM351.761 379.909H348.898H346.064H351.761Z" fill="#E0E0E0"/>
<path d="M342.896 392.765C346.892 393.253 350.933 393.253 354.929 392.765C350.931 392.319 346.895 392.319 342.896 392.765Z" fill="#E0E0E0"/>
<path d="M348.898 393.344C355.234 393.344 355.234 392.978 355.234 392.674C355.234 392.369 355.234 392.034 348.898 392.034C342.561 392.034 342.592 392.4 342.592 392.674C342.592 392.948 342.592 393.344 348.898 393.344Z" fill="#E0E0E0"/>
<path d="M342.896 405.438C346.895 405.885 350.931 405.885 354.929 405.438C350.931 404.991 346.895 404.991 342.896 405.438Z" fill="#E0E0E0"/>
<path d="M348.898 406.108C355.234 406.108 355.234 405.742 355.234 405.438C355.234 405.133 355.234 404.768 348.898 404.768C342.561 404.768 342.592 405.133 342.592 405.438C342.592 405.742 342.592 406.108 348.898 406.108Z" fill="#E0E0E0"/>
<path d="M342.896 418.202C346.895 418.649 350.931 418.649 354.929 418.202C350.933 417.715 346.892 417.715 342.896 418.202Z" fill="#E0E0E0"/>
<path d="M348.898 418.842C355.234 418.842 355.234 418.476 355.234 418.202C355.234 417.928 355.234 417.532 348.898 417.532C342.561 417.532 342.592 417.897 342.592 418.202C342.592 418.507 342.592 418.842 348.898 418.842Z" fill="#E0E0E0"/>
<path d="M342.896 430.966C346.895 431.413 350.931 431.413 354.929 430.966C350.933 430.479 346.892 430.479 342.896 430.966Z" fill="#E0E0E0"/>
<path d="M348.898 431.606C355.234 431.606 355.234 431.24 355.234 430.966C355.234 430.692 355.234 430.296 348.898 430.296C342.561 430.296 342.592 430.662 342.592 430.966C342.592 431.271 342.592 431.606 348.898 431.606ZM351.792 430.966H346.034H348.898H351.792Z" fill="#E0E0E0"/>
<path d="M342.896 443.73C346.895 444.177 350.931 444.177 354.929 443.73C350.933 443.243 346.892 443.243 342.896 443.73Z" fill="#E0E0E0"/>
<path d="M348.898 444.37C355.234 444.37 355.234 444.005 355.234 443.731C355.234 443.456 355.234 443.06 348.898 443.06C342.561 443.06 342.592 443.426 342.592 443.731C342.592 444.035 342.592 444.37 348.898 444.37ZM351.761 443.731H346.064H348.898H351.761Z" fill="#E0E0E0"/>
<path d="M342.896 456.464C346.892 456.952 350.933 456.952 354.929 456.464C350.931 456.017 346.895 456.017 342.896 456.464Z" fill="#E0E0E0"/>
<path d="M348.898 457.134C355.234 457.134 355.234 456.769 355.234 456.464C355.234 456.16 355.234 455.824 348.898 455.824C342.561 455.824 342.592 456.19 342.592 456.464C342.592 456.738 342.592 457.134 348.898 457.134ZM351.761 456.464H348.898H346.064H351.761Z" fill="#E0E0E0"/>
<path d="M342.896 469.228C346.892 469.716 350.933 469.716 354.929 469.228C350.931 468.782 346.895 468.782 342.896 469.228Z" fill="#E0E0E0"/>
<path d="M348.898 469.899C355.234 469.899 355.234 469.533 355.234 469.228C355.234 468.924 355.234 468.589 348.898 468.589C342.561 468.589 342.592 468.954 342.592 469.228C342.592 469.503 342.592 469.899 348.898 469.899ZM351.792 469.228H348.898H346.034H351.792Z" fill="#E0E0E0"/>
<path d="M342.896 481.992C346.892 482.48 350.933 482.48 354.929 481.992C350.931 481.546 346.895 481.546 342.896 481.992Z" fill="#E0E0E0"/>
<path d="M348.898 482.663C355.234 482.663 355.234 482.297 355.234 481.992C355.234 481.688 355.234 481.353 348.898 481.353C342.561 481.353 342.592 481.718 342.592 481.992C342.592 482.267 342.592 482.663 348.898 482.663ZM351.761 481.992H348.898H346.064H351.761Z" fill="#E0E0E0"/>
<path d="M342.896 494.757C346.895 495.203 350.931 495.203 354.929 494.757C350.931 494.31 346.895 494.31 342.896 494.757Z" fill="#E0E0E0"/>
<path d="M348.898 495.427C355.234 495.427 355.234 495.061 355.234 494.757C355.234 494.452 355.234 494.117 348.898 494.117C342.561 494.117 342.592 494.452 342.592 494.757C342.592 495.061 342.592 495.427 348.898 495.427Z" fill="#E0E0E0"/>
<path d="M342.896 507.521C346.895 507.968 350.931 507.968 354.929 507.521C350.933 507.033 346.892 507.033 342.896 507.521Z" fill="#E0E0E0"/>
<path d="M348.898 508.161C355.234 508.161 355.234 507.795 355.234 507.521C355.234 507.247 355.234 506.851 348.898 506.851C342.561 506.851 342.592 507.216 342.592 507.521C342.592 507.825 342.592 508.161 348.898 508.161Z" fill="#E0E0E0"/>
<path d="M342.896 520.285C346.895 520.732 350.931 520.732 354.929 520.285C350.933 519.798 346.892 519.798 342.896 520.285Z" fill="#E0E0E0"/>
<path d="M348.898 520.925C355.234 520.925 355.234 520.559 355.234 520.285C355.234 520.011 355.234 519.615 348.898 519.615C342.561 519.615 342.592 519.98 342.592 520.285C342.592 520.59 342.592 520.925 348.898 520.925ZM351.761 520.285H346.064H348.898H351.761Z" fill="#E0E0E0"/>
<path d="M342.896 533.049C346.895 533.496 350.931 533.496 354.929 533.049C350.933 532.562 346.892 532.562 342.896 533.049Z" fill="#E0E0E0"/>
<path d="M348.898 533.689C355.234 533.689 355.234 533.323 355.234 533.049C355.234 532.775 355.234 532.379 348.898 532.379C342.561 532.379 342.592 532.744 342.592 533.049C342.592 533.354 342.592 533.689 348.898 533.689ZM351.761 533.049H346.064H348.898H351.761Z" fill="#E0E0E0"/>
<path d="M342.896 545.783C346.892 546.27 350.933 546.27 354.929 545.783C350.931 545.336 346.895 545.336 342.896 545.783Z" fill="#E0E0E0"/>
<path d="M348.898 546.453C355.234 546.453 355.234 546.088 355.234 545.783C355.234 545.478 355.234 545.143 348.898 545.143C342.561 545.143 342.592 545.509 342.592 545.783C342.592 546.057 342.592 546.453 348.898 546.453ZM351.792 545.783H348.898H346.034H351.792Z" fill="#E0E0E0"/>
<path d="M342.896 558.547C346.892 559.035 350.933 559.035 354.929 558.547C350.931 558.1 346.895 558.1 342.896 558.547Z" fill="#E0E0E0"/>
<path d="M348.898 559.217C355.234 559.217 355.234 558.852 355.234 558.547C355.234 558.243 355.234 557.907 348.898 557.907C342.561 557.907 342.592 558.273 342.592 558.547C342.592 558.821 342.592 559.217 348.898 559.217ZM351.761 558.547H348.898H346.064H351.761Z" fill="#E0E0E0"/>
<path d="M294.581 379.178C294.581 379.361 301.588 379.513 310.239 379.513C318.891 379.513 325.867 379.361 325.867 379.178C325.867 378.996 318.861 378.813 310.239 378.813C301.618 378.813 294.581 378.965 294.581 379.178Z" fill="#4A669C"/>
<path d="M310.239 379.818C326.172 379.818 326.172 379.514 326.172 379.178C326.172 378.843 326.172 378.508 310.239 378.508C294.307 378.508 294.276 378.813 294.276 379.178C294.276 379.544 294.276 379.818 310.239 379.818ZM317.642 379.178H302.806H310.239H317.642Z" fill="#4A669C"/>
<path d="M294.581 558.547C294.581 558.76 301.588 558.913 310.239 558.913C318.891 558.913 325.867 558.913 325.867 558.547C325.867 558.182 318.861 558.212 310.239 558.212C301.618 558.212 294.581 558.364 294.581 558.547Z" fill="#4A669C"/>
<path d="M310.239 559.217C326.172 559.217 326.172 558.913 326.172 558.547C326.172 558.182 326.172 557.907 310.239 557.907C294.307 557.907 294.276 558.212 294.276 558.547C294.276 558.882 294.276 559.217 310.239 559.217ZM317.611 558.547H310.239H302.837H317.733H317.611Z" fill="#4A669C"/>
<path d="M251.049 405.438C251.049 405.621 264.148 405.773 280.294 405.773C296.439 405.773 309.539 405.621 309.539 405.438C309.539 405.255 296.439 405.103 280.294 405.103C264.148 405.103 251.049 405.255 251.049 405.438Z" fill="#4A669C"/>
<path d="M280.294 406.108C288.092 406.108 295.525 406.108 300.978 406.108C309.843 406.108 309.843 406.108 309.843 405.56C309.843 405.011 309.843 405.103 300.978 405.011C295.465 405.011 288.092 405.011 280.294 405.011C272.495 405.011 265.062 405.011 259.609 405.011C250.744 405.011 250.744 405.011 250.744 405.56C250.744 406.108 250.744 406.017 259.609 406.108C265.123 406.047 272.495 406.108 280.294 406.108Z" fill="#4A669C"/>
<path d="M183.39 405.438C183.39 405.621 196.489 405.773 212.634 405.773C228.78 405.773 241.879 405.621 241.879 405.438C241.879 405.255 228.811 405.103 212.634 405.103C196.458 405.103 183.39 405.255 183.39 405.438Z" fill="#E0E0E0"/>
<path d="M212.634 406.108C220.463 406.108 227.866 406.108 233.319 406.108C242.214 406.108 242.214 406.108 242.214 405.56C242.214 405.011 242.214 405.103 233.319 405.011C227.805 405.011 220.463 405.011 212.634 405.011C204.805 405.011 197.403 405.011 191.95 405.011C183.085 405.011 183.085 405.011 183.085 405.56C183.085 406.108 183.085 406.017 191.95 406.108C197.464 406.047 204.836 406.108 212.634 406.108Z" fill="#E0E0E0"/>
<path d="M209.253 418.202C209.253 418.385 228.536 418.537 252.359 418.537C276.181 418.537 295.465 418.385 295.465 418.202C295.465 418.019 276.181 417.836 252.359 417.836C228.536 417.836 209.253 418.019 209.253 418.202Z" fill="#E0E0E0"/>
<path d="M252.359 418.842C263.874 418.842 274.689 418.842 282.822 418.842C295.739 418.842 295.739 418.842 295.739 418.293C295.739 417.745 295.739 417.837 282.822 417.745C274.658 417.745 263.844 417.745 252.359 417.745C240.874 417.745 229.999 417.745 221.895 417.745C208.979 417.745 208.979 417.745 208.979 418.293C208.979 418.842 208.979 418.75 221.895 418.842C229.999 418.811 240.844 418.842 252.359 418.842Z" fill="#E0E0E0"/>
<path d="M209.253 430.966C209.253 431.149 228.536 431.301 252.359 431.301C276.181 431.301 295.465 431.149 295.465 430.966C295.465 430.783 276.181 430.601 252.359 430.601C228.536 430.601 209.253 430.753 209.253 430.966Z" fill="#E0E0E0"/>
<path d="M252.359 431.606C263.874 431.606 274.719 431.606 282.822 431.606C295.739 431.606 295.739 431.606 295.739 431.058C295.739 430.509 295.739 430.601 282.822 430.509C274.658 430.509 263.844 430.509 252.359 430.509C240.874 430.509 229.999 430.509 221.895 430.509C208.979 430.509 208.979 430.509 208.979 431.058C208.979 431.606 208.979 431.484 221.895 431.606C229.999 431.575 240.844 431.606 252.359 431.606ZM272.891 430.966H231.826H252.359H272.891Z" fill="#E0E0E0"/>
<path d="M149.88 469.228C149.88 469.441 169.194 469.594 192.985 469.594C216.777 469.594 236.122 469.441 236.122 469.228C236.122 469.015 216.808 468.924 192.833 468.924C168.858 468.924 149.88 468.924 149.88 469.228Z" fill="#E0E0E0"/>
<path d="M192.833 469.898C204.379 469.898 215.193 469.898 223.297 469.898C236.244 469.898 236.244 469.898 236.244 469.35C236.244 468.802 236.244 468.924 223.297 468.802C215.163 468.802 204.318 468.802 192.833 468.802C181.349 468.802 170.504 468.802 162.37 468.802C149.423 468.802 149.423 468.802 149.423 469.35C149.423 469.898 149.423 469.807 162.37 469.898C170.656 469.868 181.47 469.898 192.833 469.898ZM213.366 469.228H192.833H172.331H213.518H213.366Z" fill="#E0E0E0"/>
<path d="M175.5 443.731C175.5 443.913 194.814 444.066 218.605 444.066C242.397 444.066 261.742 443.913 261.742 443.731C261.742 443.548 242.428 443.365 218.605 443.365C194.783 443.365 175.5 443.517 175.5 443.731Z" fill="#E0E0E0"/>
<path d="M218.605 444.37C230.12 444.37 240.965 444.37 249.069 444.37C262.016 444.37 262.016 444.37 262.016 443.822C262.016 443.273 262.016 443.365 249.069 443.243C240.935 443.243 230.09 443.243 218.605 443.243C207.121 443.243 196.276 443.243 188.142 443.243C175.225 443.243 175.225 443.395 175.225 443.822C175.225 444.248 175.225 444.248 188.142 444.37C196.276 444.34 207.09 444.37 218.605 444.37ZM239.016 443.73H198.195H218.605H239.016Z" fill="#E0E0E0"/>
<path d="M70.1264 443.731C70.1264 443.913 89.4402 444.066 113.232 444.066C137.024 444.066 156.368 443.913 156.368 443.731C156.368 443.548 137.055 443.365 113.232 443.365C89.4098 443.365 70.1264 443.517 70.1264 443.731Z" fill="#E0E0E0"/>
<path d="M113.232 444.37C124.747 444.37 135.592 444.37 143.696 444.37C156.643 444.37 156.643 444.37 156.643 443.822C156.643 443.273 156.643 443.365 143.696 443.243C135.562 443.243 124.717 443.243 113.232 443.243C101.748 443.243 90.9026 443.243 82.7689 443.243C69.8524 443.243 69.8524 443.395 69.8524 443.822C69.8524 444.248 69.8524 444.248 82.7689 444.37C90.9026 444.34 101.717 444.37 113.232 444.37ZM133.643 443.73H92.8219H113.232H133.643Z" fill="#E0E0E0"/>
<path d="M106.774 418.202C106.774 418.385 126.088 418.537 149.88 418.537C173.672 418.537 192.986 418.385 192.986 418.202C192.986 418.019 173.702 417.836 149.88 417.836C126.057 417.836 106.774 418.019 106.774 418.202Z" fill="#E0E0E0"/>
<path d="M149.88 418.842C161.395 418.842 172.24 418.842 180.343 418.842C193.29 418.842 193.29 418.842 193.29 418.293C193.29 417.745 193.29 417.837 180.343 417.745C172.209 417.745 161.364 417.745 149.88 417.745C138.395 417.745 127.55 417.745 119.416 417.745C106.5 417.745 106.5 417.745 106.5 418.293C106.5 418.842 106.5 418.75 119.416 418.842C127.55 418.811 138.365 418.842 149.88 418.842Z" fill="#E0E0E0"/>
<path d="M47.2181 469.228C47.2181 469.442 66.5014 469.594 90.3238 469.594C114.146 469.594 133.43 469.442 133.43 469.228C133.43 469.015 114.146 468.893 90.3238 468.893C66.5014 468.893 47.2181 468.924 47.2181 469.228Z" fill="#E0E0E0"/>
<path d="M90.3237 469.898C101.839 469.898 112.684 469.898 120.787 469.898C133.704 469.898 133.704 469.898 133.704 469.35C133.704 468.802 133.704 468.924 120.787 468.802C112.623 468.802 101.808 468.802 90.3237 468.802C78.839 468.802 67.994 468.802 59.8603 468.802C46.9438 468.802 46.9437 468.802 46.9437 469.35C46.9437 469.898 46.9438 469.807 59.8603 469.898C67.9331 469.868 78.8085 469.898 90.3237 469.898ZM110.856 469.228H90.3237H69.7913H110.856Z" fill="#E0E0E0"/>
<path d="M59.0988 430.966C59.0988 431.149 89.0749 431.301 126.118 431.301C163.162 431.301 193.138 431.149 193.138 430.966C193.138 430.783 163.192 430.601 126.118 430.601C89.0444 430.601 59.0988 430.753 59.0988 430.966Z" fill="#455A64"/>
<path d="M126.057 431.606C143.939 431.606 160.755 431.606 173.398 431.606C187.593 431.606 191.676 431.606 192.833 431.332C193.229 431.332 193.229 431.332 193.229 431.058C193.229 430.784 193.229 430.844 192.833 430.784C191.676 430.631 187.593 430.601 173.398 430.54C160.755 430.54 143.939 430.54 126.057 430.54C108.175 430.54 91.3595 430.54 78.7172 430.54C64.5212 430.54 60.4391 430.54 59.2815 430.784C58.8855 430.784 58.8855 430.936 58.8855 431.058C58.8855 431.18 58.8855 431.24 59.2815 431.332C60.4696 431.484 64.5517 431.515 78.7476 431.606C91.3595 431.576 108.145 431.606 126.057 431.606ZM157.648 430.966H94.4363H126.057H157.648Z" fill="#455A64"/>
<path d="M294.581 392.765C294.581 392.948 301.588 393.131 310.239 393.131C318.891 393.131 325.867 392.948 325.867 392.765C325.867 392.582 318.861 392.43 310.239 392.43C301.618 392.43 294.581 392.491 294.581 392.765Z" fill="#E0E0E0"/>
<path d="M310.239 393.344C326.172 393.344 326.172 393.039 326.172 392.674C326.172 392.308 326.172 392.034 310.239 392.034C294.307 392.034 294.276 392.339 294.276 392.674C294.276 393.009 294.276 393.344 310.239 393.344Z" fill="#E0E0E0"/>
<path d="M294.581 545.783C294.581 545.996 301.588 546.149 310.239 546.149C318.891 546.149 325.867 546.149 325.867 545.783C325.867 545.417 318.861 545.448 310.239 545.448C301.618 545.448 294.581 545.6 294.581 545.783Z" fill="#E0E0E0"/>
<path d="M310.239 546.453C326.172 546.453 326.172 546.149 326.172 545.783C326.172 545.417 326.172 545.143 310.239 545.143C294.307 545.143 294.276 545.448 294.276 545.783C294.276 546.118 294.276 546.453 310.239 546.453ZM317.642 545.783H310.239H302.806H317.733H317.642Z" fill="#E0E0E0"/>
<path d="M279.106 443.731C279.106 443.913 286.112 444.066 294.733 444.066C303.355 444.066 310.361 443.913 310.361 443.731C310.361 443.548 303.355 443.365 294.733 443.365C286.112 443.365 279.106 443.517 279.106 443.731Z" fill="#E0E0E0"/>
<path d="M294.733 444.37C310.666 444.37 310.666 444.066 310.666 443.731C310.666 443.395 310.666 443.06 294.733 443.06C278.801 443.06 278.801 443.365 278.801 443.731C278.801 444.096 278.801 444.37 294.733 444.37ZM302.106 443.731H287.27H294.672H302.106Z" fill="#E0E0E0"/>
<path d="M28.3307 443.731C28.3307 443.913 35.3373 444.066 43.9889 444.066C52.6405 444.066 59.6166 443.913 59.6166 443.731C59.6166 443.548 52.6101 443.365 43.9889 443.365C35.3678 443.365 28.3307 443.517 28.3307 443.731Z" fill="#4A669C"/>
<path d="M44.1107 444.37C60.0431 444.37 60.0431 444.066 60.0431 443.731C60.0431 443.395 60.0431 443.06 44.1107 443.06C28.1783 443.06 28.1479 443.365 28.1479 443.731C28.1479 444.096 28.1478 444.37 44.1107 444.37ZM51.4829 443.731H36.7081H44.1107H51.4829Z" fill="#4A669C"/>
<path d="M251.049 494.696C251.049 494.878 264.148 495.031 280.294 495.031C296.439 495.031 309.539 495.031 309.539 494.696C309.539 494.361 296.439 494.33 280.294 494.33C264.148 494.33 251.049 494.482 251.049 494.696Z" fill="#4A669C"/>
<path d="M280.294 495.336C288.092 495.336 295.525 495.336 300.978 495.336C309.843 495.336 309.843 495.336 309.843 494.787C309.843 494.239 309.843 494.33 300.978 494.208C295.465 494.208 288.123 494.208 280.294 494.208C272.465 494.208 265.062 494.208 259.609 494.208C250.744 494.208 250.744 494.209 250.744 494.787C250.744 495.366 250.744 495.214 259.609 495.336C265.123 495.305 272.495 495.336 280.294 495.336ZM294.216 494.696H266.372H280.294H294.216Z" fill="#4A669C"/>
<path d="M183.39 494.696C183.39 494.878 196.489 495.031 212.634 495.031C228.78 495.031 241.879 495.031 241.879 494.696C241.879 494.361 228.811 494.33 212.634 494.33C196.458 494.33 183.39 494.482 183.39 494.696Z" fill="#E0E0E0"/>
<path d="M212.634 495.336C220.463 495.336 227.866 495.336 233.319 495.336C242.214 495.336 242.214 495.336 242.214 494.787C242.214 494.239 242.214 494.33 233.319 494.208C227.805 494.208 220.463 494.208 212.634 494.208C204.805 494.208 197.403 494.208 191.95 494.208C183.085 494.208 183.085 494.209 183.085 494.787C183.085 495.366 183.085 495.214 191.95 495.336C197.464 495.305 204.836 495.336 212.634 495.336ZM226.556 494.696H198.713H212.634H226.556Z" fill="#E0E0E0"/>
<path d="M209.253 507.429C209.253 507.643 228.536 507.795 252.359 507.795C276.181 507.795 295.465 507.795 295.465 507.429C295.465 507.064 276.181 507.094 252.359 507.094C228.536 507.094 209.253 507.247 209.253 507.429Z" fill="#E0E0E0"/>
<path d="M252.359 508.1C263.874 508.1 274.689 508.1 282.822 508.1C295.739 508.1 295.739 507.947 295.739 507.521C295.739 507.094 295.739 507.095 282.822 506.973C274.658 506.973 263.844 506.973 252.359 506.973C240.874 506.973 229.999 506.973 221.895 506.973C208.979 506.973 208.979 506.973 208.979 507.521C208.979 508.069 208.979 507.978 221.895 508.1C229.999 508.069 240.844 508.1 252.359 508.1ZM272.769 507.43H252.359H231.948H272.769Z" fill="#E0E0E0"/>
<path d="M209.253 520.194C209.253 520.407 228.536 520.559 252.359 520.559C276.181 520.559 295.465 520.559 295.465 520.194C295.465 519.828 276.181 519.859 252.359 519.859C228.536 519.859 209.253 520.011 209.253 520.194Z" fill="#E0E0E0"/>
<path d="M252.359 520.864C263.874 520.864 274.719 520.864 282.822 520.864C295.739 520.864 295.739 520.864 295.739 520.315C295.739 519.767 295.739 519.889 282.822 519.767C274.658 519.767 263.844 519.767 252.359 519.767C240.874 519.767 229.999 519.767 221.895 519.767C208.979 519.767 208.979 519.767 208.979 520.315C208.979 520.864 208.979 520.772 221.895 520.864C229.999 520.711 240.844 520.864 252.359 520.864ZM272.891 520.194H252.359H231.826H272.891Z" fill="#E0E0E0"/>
<path d="M175.5 532.897C175.5 533.08 194.814 533.262 218.605 533.262C242.397 533.262 261.742 533.08 261.742 532.897C261.742 532.714 242.428 532.562 218.605 532.562C194.783 532.562 175.5 532.897 175.5 532.897Z" fill="#E0E0E0"/>
<path d="M218.605 533.628C230.12 533.628 240.965 533.628 249.069 533.628C262.016 533.628 262.016 533.628 262.016 533.08C262.016 532.531 262.016 532.623 249.069 532.531C240.935 532.531 230.09 532.531 218.605 532.531C207.121 532.531 196.276 532.531 188.142 532.531C175.225 532.531 175.225 532.531 175.225 533.08C175.225 533.628 175.225 533.537 188.142 533.628C196.276 533.597 207.09 533.628 218.605 533.628Z" fill="#E0E0E0"/>
<path d="M70.1266 532.897C70.1266 533.08 89.4404 533.262 113.232 533.262C137.024 533.262 156.277 533.141 156.277 532.897C156.277 532.653 136.963 532.562 113.141 532.562C89.3186 532.562 70.1266 532.897 70.1266 532.897Z" fill="#E0E0E0"/>
<path d="M113.232 533.628C124.747 533.628 135.592 533.628 143.696 533.628C156.643 533.628 156.643 533.628 156.643 533.08C156.643 532.531 156.643 532.623 143.696 532.531C135.562 532.531 124.717 532.531 113.232 532.531C101.748 532.531 90.9026 532.531 82.7689 532.531C69.8524 532.531 69.8524 532.531 69.8524 533.08C69.8524 533.628 69.8524 533.537 82.7689 533.628C90.9026 533.597 101.717 533.628 113.232 533.628Z" fill="#E0E0E0"/>
<path d="M106.774 507.429C106.774 507.643 126.088 507.795 149.88 507.795C173.672 507.795 192.986 507.795 192.986 507.429C192.986 507.064 173.702 507.094 149.88 507.094C126.057 507.094 106.774 507.247 106.774 507.429Z" fill="#E0E0E0"/>
<path d="M149.88 508.1C161.395 508.1 172.24 508.1 180.343 508.1C193.29 508.1 193.29 507.947 193.29 507.521C193.29 507.094 193.29 507.095 180.343 506.973C172.209 506.973 161.364 506.973 149.88 506.973C138.395 506.973 127.55 506.973 119.416 506.973C106.5 506.973 106.5 506.973 106.5 507.521C106.5 508.069 106.5 507.978 119.416 508.1C127.55 508.069 138.365 508.1 149.88 508.1ZM170.29 507.43H149.88H129.469H170.29Z" fill="#E0E0E0"/>
<path d="M59.0988 520.194C59.0988 520.407 89.0749 520.559 126.118 520.559C163.162 520.559 193.138 520.559 193.138 520.194C193.138 519.828 163.192 519.859 126.118 519.859C89.0444 519.859 59.0988 520.011 59.0988 520.194Z" fill="#455A64"/>
<path d="M126.057 520.864C143.939 520.864 160.755 520.864 173.398 520.864C187.593 520.864 191.676 520.864 192.833 520.62C193.229 520.62 193.229 520.62 193.229 520.346C193.229 520.072 193.229 520.163 192.833 520.072C191.676 519.889 187.593 519.889 173.398 519.798C160.755 519.798 143.939 519.798 126.057 519.798C108.175 519.798 91.3595 519.798 78.7172 519.798C64.5212 519.798 60.4391 519.798 59.2815 520.072C58.8855 520.072 58.8855 520.072 58.8855 520.346C58.8855 520.62 58.8855 520.559 59.2815 520.62C60.4696 520.62 64.5517 520.803 78.7476 520.864C91.3595 520.712 108.145 520.864 126.057 520.864ZM157.648 520.194H126.057H94.4363H157.648Z" fill="#455A64"/>
<path d="M279.106 532.897C279.106 533.08 286.112 533.262 294.733 533.262C303.355 533.262 310.361 533.08 310.361 532.897C310.361 532.714 303.355 532.562 294.733 532.562C286.112 532.562 279.106 532.897 279.106 532.897Z" fill="#E0E0E0"/>
<path d="M294.733 533.628C310.666 533.628 310.666 533.323 310.666 532.958C310.666 532.592 310.666 532.318 294.733 532.318C278.801 532.318 278.801 532.623 278.801 532.958C278.801 533.293 278.801 533.628 294.733 533.628Z" fill="#E0E0E0"/>
<path d="M28.3307 532.897C28.3307 533.08 35.3373 533.262 43.9889 533.262C52.6405 533.262 59.6166 533.08 59.6166 532.897C59.6166 532.714 52.6101 532.562 43.9889 532.562C35.3678 532.562 28.3307 532.897 28.3307 532.897Z" fill="#4A669C"/>
<path d="M44.1107 533.628C60.0431 533.628 60.0431 533.323 60.0431 532.958C60.0431 532.592 60.0431 532.318 44.1107 532.318C28.1783 532.318 28.1479 532.623 28.1479 532.958C28.1479 533.293 28.1478 533.628 44.1107 533.628Z" fill="#4A669C"/>
<path d="M840.73 364.069H1186.28V565.401H840.73V364.069Z" fill="#263238"/>
<path d="M1159.26 555.257C1159.44 555.257 1159.59 514.101 1159.59 463.318C1159.59 412.536 1159.44 371.441 1159.26 371.441C1159.07 371.441 1158.92 412.627 1158.92 463.41C1158.92 514.192 1159.07 555.257 1159.26 555.257Z" fill="#E0E0E0"/>
<path d="M1159.26 555.562C1159.26 555.562 1159.47 555.562 1159.53 555.196C1159.53 554.526 1159.53 552.759 1159.68 548.098C1159.83 543.437 1159.68 536.705 1159.68 528.388C1159.68 511.024 1159.68 487.933 1159.68 463.379C1159.68 438.826 1159.68 415.735 1159.68 398.34C1159.68 390.023 1159.68 383.291 1159.68 378.66C1159.68 374.03 1159.68 372.202 1159.53 371.532C1159.53 371.166 1159.53 371.167 1159.26 371.167C1158.98 371.167 1159.04 371.166 1158.98 371.532C1158.98 372.202 1158.98 374 1158.98 378.66C1158.98 383.321 1158.98 390.023 1158.98 398.34C1158.98 415.735 1158.98 438.826 1158.98 463.379C1158.98 487.933 1158.98 511.024 1158.98 528.388C1158.98 536.705 1158.98 543.437 1158.98 548.098C1158.98 552.759 1158.98 554.526 1158.98 555.196C1159.04 555.562 1159.1 555.562 1159.26 555.562ZM1159.26 420.182C1159.26 433.099 1159.26 447.782 1159.26 463.318C1159.26 478.855 1159.26 493.538 1159.26 506.455C1159.26 493.538 1159.26 478.855 1159.26 463.318C1159.26 447.782 1159.22 433.099 1159.26 420.182Z" fill="#E0E0E0"/>
<path d="M1166.35 379.117C1168.24 379.449 1170.16 379.562 1172.08 379.452C1174 379.562 1175.92 379.449 1177.81 379.117C1175.92 378.785 1174 378.673 1172.08 378.782C1170.16 378.673 1168.24 378.785 1166.35 379.117Z" fill="#E0E0E0"/>
<path d="M1172.08 379.757C1178.17 379.757 1178.17 379.392 1178.17 379.118C1178.17 378.843 1178.17 378.508 1172.08 378.508C1165.99 378.508 1165.99 378.843 1165.99 379.118C1165.99 379.392 1166.05 379.757 1172.08 379.757Z" fill="#E0E0E0"/>
<path d="M1166.35 391.242C1168.24 391.574 1170.16 391.686 1172.08 391.577C1174 391.686 1175.92 391.574 1177.81 391.242C1175.92 390.91 1174 390.797 1172.08 390.907C1170.16 390.797 1168.24 390.91 1166.35 391.242Z" fill="#E0E0E0"/>
<path d="M1172.08 391.851C1178.17 391.851 1178.17 391.516 1178.17 391.242C1178.17 390.968 1178.17 390.602 1172.08 390.602C1165.99 390.602 1165.99 390.968 1165.99 391.242C1165.99 391.516 1166.05 391.851 1172.08 391.851Z" fill="#E0E0E0"/>
<path d="M1166.35 403.366C1168.25 403.679 1170.17 403.781 1172.08 403.671C1173.99 403.781 1175.92 403.679 1177.81 403.366C1175.92 403.034 1174 402.922 1172.08 403.031C1170.16 402.922 1168.24 403.034 1166.35 403.366Z" fill="#E0E0E0"/>
<path d="M1172.08 403.976C1178.17 403.976 1178.17 403.64 1178.17 403.366C1178.17 403.092 1178.17 402.727 1172.08 402.727C1165.99 402.727 1165.99 403.092 1165.99 403.366C1165.99 403.64 1166.05 403.976 1172.08 403.976ZM1174.79 403.366H1169.37H1172.08H1174.79Z" fill="#E0E0E0"/>
<path d="M1166.35 415.46C1168.24 415.792 1170.16 415.905 1172.08 415.795C1174 415.905 1175.92 415.792 1177.81 415.46C1175.92 415.148 1173.99 415.046 1172.08 415.156C1170.17 415.046 1168.25 415.148 1166.35 415.46Z" fill="#E0E0E0"/>
<path d="M1172.08 416.1C1178.17 416.1 1178.17 415.765 1178.17 415.46C1178.17 415.156 1178.17 414.851 1172.08 414.851C1165.99 414.851 1165.99 415.186 1165.99 415.46C1165.99 415.735 1166.05 416.1 1172.08 416.1ZM1174.79 415.46H1172.08H1169.37H1174.79Z" fill="#E0E0E0"/>
<path d="M1166.35 427.585C1168.24 427.917 1170.16 428.029 1172.08 427.92C1174 428.029 1175.92 427.917 1177.81 427.585C1175.92 427.253 1174 427.14 1172.08 427.25C1170.16 427.14 1168.24 427.253 1166.35 427.585Z" fill="#E0E0E0"/>
<path d="M1172.08 428.225C1178.17 428.225 1178.17 427.859 1178.17 427.585C1178.17 427.311 1178.17 426.976 1172.08 426.976C1165.99 426.976 1165.99 427.311 1165.99 427.585C1165.99 427.859 1166.05 428.225 1172.08 428.225Z" fill="#E0E0E0"/>
<path d="M1166.35 439.709C1168.24 440.041 1170.16 440.154 1172.08 440.044C1174 440.154 1175.92 440.041 1177.81 439.709C1175.92 439.377 1174 439.265 1172.08 439.374C1170.16 439.265 1168.24 439.377 1166.35 439.709Z" fill="#E0E0E0"/>
<path d="M1172.08 440.319C1178.17 440.319 1178.17 439.984 1178.17 439.709C1178.17 439.435 1178.17 439.1 1172.08 439.1C1165.99 439.1 1165.99 439.435 1165.99 439.709C1165.99 439.984 1166.05 440.319 1172.08 440.319Z" fill="#E0E0E0"/>
<path d="M1166.35 451.834C1168.24 452.166 1170.16 452.278 1172.08 452.169C1174 452.278 1175.92 452.166 1177.81 451.834C1175.92 451.502 1174 451.389 1172.08 451.499C1170.16 451.389 1168.24 451.502 1166.35 451.834Z" fill="#E0E0E0"/>
<path d="M1172.08 452.443C1178.17 452.443 1178.17 452.108 1178.17 451.834C1178.17 451.559 1178.17 451.194 1172.08 451.194C1165.99 451.194 1165.99 451.559 1165.99 451.834C1165.99 452.108 1166.05 452.443 1172.08 452.443ZM1174.79 451.834H1169.37H1172.08H1174.79Z" fill="#E0E0E0"/>
<path d="M1166.35 463.958C1168.25 464.27 1170.17 464.373 1172.08 464.263C1173.99 464.373 1175.92 464.27 1177.81 463.958C1175.92 463.626 1174 463.514 1172.08 463.623C1170.16 463.514 1168.24 463.626 1166.35 463.958Z" fill="#E0E0E0"/>
<path d="M1172.08 464.567C1178.17 464.567 1178.17 464.232 1178.17 463.958C1178.17 463.684 1178.17 463.318 1172.08 463.318C1165.99 463.318 1165.99 463.653 1165.99 463.958C1165.99 464.263 1166.05 464.567 1172.08 464.567ZM1174.79 463.958H1169.34H1172.08H1174.79Z" fill="#E0E0E0"/>
<path d="M1166.35 476.052C1168.24 476.384 1170.16 476.497 1172.08 476.387C1174 476.497 1175.92 476.384 1177.81 476.052C1175.92 475.72 1174 475.608 1172.08 475.717C1170.16 475.608 1168.24 475.72 1166.35 476.052Z" fill="#E0E0E0"/>
<path d="M1172.08 476.692C1178.17 476.692 1178.17 476.326 1178.17 476.052C1178.17 475.778 1178.17 475.443 1172.08 475.443C1165.99 475.443 1165.99 475.778 1165.99 476.052C1165.99 476.326 1166.05 476.692 1172.08 476.692ZM1174.79 476.052H1172.08H1169.37H1174.79Z" fill="#E0E0E0"/>
<path d="M1166.35 488.177C1168.24 488.509 1170.16 488.621 1172.08 488.512C1174 488.621 1175.92 488.509 1177.81 488.177C1175.92 487.845 1174 487.732 1172.08 487.842C1170.16 487.732 1168.24 487.845 1166.35 488.177Z" fill="#E0E0E0"/>
<path d="M1172.08 488.816C1178.17 488.816 1178.17 488.451 1178.17 488.177C1178.17 487.903 1178.17 487.567 1172.08 487.567C1165.99 487.567 1165.99 487.903 1165.99 488.177C1165.99 488.451 1166.05 488.816 1172.08 488.816Z" fill="#E0E0E0"/>
<path d="M1166.35 500.301C1168.24 500.633 1170.16 500.745 1172.08 500.636C1174 500.745 1175.92 500.633 1177.81 500.301C1175.92 499.969 1174 499.856 1172.08 499.966C1170.16 499.856 1168.24 499.969 1166.35 500.301Z" fill="#E0E0E0"/>
<path d="M1172.08 500.91C1178.17 500.91 1178.17 500.575 1178.17 500.301C1178.17 500.027 1178.17 499.661 1172.08 499.661C1165.99 499.661 1165.99 500.027 1165.99 500.301C1165.99 500.575 1166.05 500.91 1172.08 500.91Z" fill="#E0E0E0"/>
<path d="M1166.35 512.425C1168.24 512.757 1170.16 512.87 1172.08 512.761C1174 512.87 1175.92 512.757 1177.81 512.425C1175.92 512.093 1174 511.981 1172.08 512.09C1170.16 511.981 1168.24 512.093 1166.35 512.425Z" fill="#E0E0E0"/>
<path d="M1172.08 513.035C1178.17 513.035 1178.17 512.7 1178.17 512.425C1178.17 512.151 1178.17 511.786 1172.08 511.786C1165.99 511.786 1165.99 512.151 1165.99 512.425C1165.99 512.7 1166.05 513.035 1172.08 513.035ZM1174.79 512.425H1169.37H1172.08H1174.79Z" fill="#E0E0E0"/>
<path d="M1166.35 524.519C1168.24 524.852 1170.16 524.964 1172.08 524.855C1174 524.964 1175.92 524.852 1177.81 524.519C1175.92 524.207 1173.99 524.105 1172.08 524.215C1170.17 524.105 1168.25 524.207 1166.35 524.519Z" fill="#E0E0E0"/>
<path d="M1172.08 525.159C1178.17 525.159 1178.17 524.824 1178.17 524.519C1178.17 524.215 1178.17 523.91 1172.08 523.91C1165.99 523.91 1165.99 524.245 1165.99 524.519C1165.99 524.794 1166.05 525.159 1172.08 525.159ZM1174.79 524.519H1172.08H1169.37H1174.79Z" fill="#E0E0E0"/>
<path d="M1166.35 536.644C1168.24 536.976 1170.16 537.088 1172.08 536.979C1174 537.088 1175.92 536.976 1177.81 536.644C1175.92 536.312 1174 536.199 1172.08 536.309C1170.16 536.199 1168.24 536.312 1166.35 536.644Z" fill="#E0E0E0"/>
<path d="M1172.08 537.284C1178.17 537.284 1178.17 536.918 1178.17 536.644C1178.17 536.37 1178.17 536.035 1172.08 536.035C1165.99 536.035 1165.99 536.37 1165.99 536.644C1165.99 536.918 1166.05 537.284 1172.08 537.284Z" fill="#E0E0E0"/>
<path d="M1166.35 548.768C1168.24 549.1 1170.16 549.213 1172.08 549.103C1174 549.213 1175.92 549.1 1177.81 548.768C1175.92 548.436 1174 548.324 1172.08 548.433C1170.16 548.324 1168.24 548.436 1166.35 548.768Z" fill="#E0E0E0"/>
<path d="M1172.08 549.378C1178.17 549.378 1178.17 549.043 1178.17 548.768C1178.17 548.494 1178.17 548.159 1172.08 548.159C1165.99 548.159 1165.99 548.494 1165.99 548.768C1165.99 549.043 1166.05 549.378 1172.08 549.378Z" fill="#E0E0E0"/>
<path d="M1120.48 378.417C1120.48 378.599 1127.15 378.721 1135.34 378.721C1143.54 378.721 1150.18 378.721 1150.18 378.417C1150.18 378.112 1143.54 378.082 1135.34 378.082C1127.15 378.082 1120.48 378.234 1120.48 378.417Z" fill="#4A669C"/>
<path d="M1135.34 379.026C1150.57 379.026 1150.57 378.752 1150.57 378.417C1150.57 378.082 1150.57 377.777 1135.34 377.777C1120.11 377.777 1120.11 378.082 1120.11 378.417C1120.11 378.752 1120.2 379.026 1135.34 379.026ZM1142.38 378.417H1128.27H1135.34H1142.38Z" fill="#4A669C"/>
<path d="M1120.48 548.768C1120.48 548.951 1127.15 549.103 1135.34 549.103C1143.54 549.103 1150.18 549.103 1150.18 548.768C1150.18 548.433 1143.54 548.433 1135.34 548.433C1127.15 548.433 1120.48 548.585 1120.48 548.768Z" fill="#4A669C"/>
<path d="M1135.34 549.378C1150.57 549.378 1150.57 549.104 1150.57 548.768C1150.57 548.433 1150.57 548.159 1135.34 548.159C1120.11 548.159 1120.11 548.433 1120.11 548.768C1120.11 549.104 1120.2 549.378 1135.34 549.378Z" fill="#4A669C"/>
<path d="M1079.14 403.366C1079.14 403.549 1091.57 403.671 1106.92 403.671C1122.27 403.671 1134.7 403.671 1134.7 403.366C1134.7 403.062 1122.24 403.031 1106.92 403.031C1091.6 403.031 1079.14 403.184 1079.14 403.366Z" fill="#4A669C"/>
<path d="M1106.92 403.976C1114.32 403.976 1121.3 403.976 1126.57 403.976C1134.98 403.976 1134.98 403.976 1134.98 403.458C1134.98 402.94 1134.98 403.031 1126.57 402.909C1121.3 402.909 1114.38 402.909 1106.92 402.909C1099.46 402.909 1092.51 402.909 1087.27 402.909C1078.83 402.909 1078.83 402.909 1078.83 403.458C1078.83 404.006 1078.83 403.884 1087.27 403.976C1092.51 403.945 1099.49 403.976 1106.92 403.976ZM1120.05 403.366H1093.76H1106.92H1120.05Z" fill="#4A669C"/>
<path d="M1014.89 403.366C1014.89 403.549 1027.32 403.671 1042.67 403.671C1058.03 403.671 1070.45 403.671 1070.45 403.366C1070.45 403.062 1057.99 403.031 1042.67 403.031C1027.35 403.031 1014.89 403.184 1014.89 403.366Z" fill="#E0E0E0"/>
<path d="M1042.76 403.976C1050.17 403.976 1057.14 403.976 1062.41 403.976C1070.82 403.976 1070.82 403.976 1070.82 403.458C1070.82 402.94 1070.82 403.031 1062.41 402.909C1057.14 402.909 1050.23 402.909 1042.76 402.909C1035.3 402.909 1028.35 402.909 1023.11 402.909C1014.68 402.909 1014.68 402.909 1014.68 403.458C1014.68 404.006 1014.68 403.884 1023.11 403.976C1028.26 403.945 1035.24 403.976 1042.76 403.976ZM1055.89 403.366H1029.6H1042.76H1055.89Z" fill="#E0E0E0"/>
<path d="M1039.44 415.46C1039.44 415.643 1057.72 415.795 1080.39 415.795C1103.05 415.795 1121.33 415.643 1121.33 415.46C1121.33 415.278 1103.05 415.156 1080.39 415.156C1057.72 415.156 1039.44 415.278 1039.44 415.46Z" fill="#E0E0E0"/>
<path d="M1080.39 416.1C1091.32 416.1 1101.71 416.1 1109.33 416.1C1121.51 416.1 1121.51 416.1 1121.51 415.552C1121.51 415.003 1121.51 415.125 1109.33 415.034C1101.59 415.034 1091.32 415.034 1080.39 415.034C1069.45 415.034 1059.06 415.034 1051.41 415.034C1039.23 415.034 1039.23 415.034 1039.23 415.552C1039.23 416.07 1039.23 415.978 1051.41 416.1C1059.15 416.07 1069.45 416.1 1080.39 416.1ZM1099.76 415.46H1080.39H1061.01H1099.76Z" fill="#E0E0E0"/>
<path d="M1039.44 427.585C1039.44 427.768 1057.72 427.92 1080.39 427.92C1103.05 427.92 1121.33 427.92 1121.33 427.585C1121.33 427.25 1103.05 427.25 1080.39 427.25C1057.72 427.25 1039.44 427.402 1039.44 427.585Z" fill="#E0E0E0"/>
<path d="M1080.39 428.224C1091.32 428.224 1101.71 428.224 1109.33 428.224C1121.51 428.224 1121.51 428.224 1121.51 427.707C1121.51 427.189 1121.51 427.28 1109.33 427.189C1101.59 427.189 1091.32 427.189 1080.39 427.189C1069.45 427.189 1059.06 427.189 1051.41 427.189C1039.23 427.189 1039.23 427.189 1039.23 427.707C1039.23 428.224 1039.23 428.133 1051.41 428.224C1059.15 428.194 1069.45 428.224 1080.39 428.224Z" fill="#E0E0E0"/>
<path d="M983.055 463.958C983.055 464.141 1001.33 464.263 1024 464.263C1046.66 464.263 1064.94 464.263 1064.94 463.958C1064.94 463.654 1046.66 463.623 1024 463.623C1001.33 463.623 983.055 463.775 983.055 463.958Z" fill="#E0E0E0"/>
<path d="M1024 464.567C1034.96 464.567 1045.32 464.567 1052.97 464.567C1065.15 464.567 1065.15 464.567 1065.15 464.05C1065.15 463.532 1065.15 463.623 1052.97 463.501C1045.23 463.501 1034.93 463.501 1024 463.501C1013.06 463.501 1002.67 463.501 995.057 463.501C982.872 463.501 982.872 463.501 982.872 464.05C982.872 464.598 982.872 464.476 995.057 464.567C1002.8 464.537 1013.06 464.567 1024 464.567ZM1043.49 463.958H1004.5H1024H1043.49Z" fill="#E0E0E0"/>
<path d="M1007.4 439.709C1007.4 439.892 1025.67 440.044 1048.34 440.044C1071 440.044 1089.28 439.892 1089.28 439.709C1089.28 439.527 1071 439.374 1048.34 439.374C1025.67 439.374 1007.4 439.527 1007.4 439.709Z" fill="#E0E0E0"/>
<path d="M1048.34 440.318C1059.27 440.318 1069.66 440.318 1077.28 440.318C1089.46 440.318 1089.46 440.318 1089.46 439.801C1089.46 439.283 1089.46 439.374 1077.28 439.283C1069.54 439.283 1059.27 439.283 1048.34 439.283C1037.4 439.283 1027.01 439.283 1019.37 439.283C1007.18 439.283 1007.18 439.283 1007.18 439.801C1007.18 440.318 1007.18 440.227 1019.37 440.318C1027.1 440.288 1037.4 440.318 1048.34 440.318Z" fill="#E0E0E0"/>
<path d="M907.323 439.709C907.323 439.892 925.601 440.044 948.266 440.044C970.93 440.044 989.208 439.892 989.208 439.709C989.208 439.527 970.93 439.374 948.266 439.374C925.601 439.374 907.323 439.527 907.323 439.709Z" fill="#E0E0E0"/>
<path d="M948.327 440.318C959.263 440.318 969.651 440.318 977.267 440.318C989.452 440.318 989.452 440.318 989.452 439.801C989.452 439.283 989.452 439.374 977.267 439.283C969.529 439.283 959.263 439.283 948.327 439.283C937.39 439.283 927.002 439.283 919.386 439.283C907.201 439.283 907.201 439.283 907.201 439.801C907.201 440.318 907.201 440.227 919.386 440.318C927.002 440.288 937.329 440.318 948.327 440.318Z" fill="#E0E0E0"/>
<path d="M942.234 415.46C942.234 415.643 960.512 415.795 983.177 415.795C1005.84 415.795 1024.12 415.643 1024.12 415.46C1024.12 415.278 1005.84 415.156 983.177 415.156C960.512 415.156 942.234 415.278 942.234 415.46Z" fill="#E0E0E0"/>
<path d="M983.055 416.1C993.991 416.1 1004.38 416.1 1012.03 416.1C1024.21 416.1 1024.21 416.1 1024.21 415.552C1024.21 415.003 1024.21 415.125 1012.03 415.034C1004.29 415.034 993.991 415.034 983.055 415.034C972.118 415.034 961.73 415.034 954.115 415.034C941.929 415.034 941.929 415.034 941.929 415.552C941.929 416.07 941.929 415.978 954.115 416.1C961.852 416.07 972.118 416.1 983.055 416.1ZM1002.43 415.46H983.055H963.68H1002.43Z" fill="#E0E0E0"/>
<path d="M885.541 463.958C885.541 464.141 903.819 464.263 926.484 464.263C949.149 464.263 967.458 464.263 967.458 463.958C967.458 463.654 949.179 463.623 926.484 463.623C903.789 463.623 885.541 463.775 885.541 463.958Z" fill="#E0E0E0"/>
<path d="M926.484 464.567C937.451 464.567 947.809 464.567 955.455 464.567C967.64 464.567 967.64 464.567 967.64 464.05C967.64 463.532 967.64 463.623 955.455 463.501C947.717 463.501 937.421 463.501 926.484 463.501C915.548 463.501 905.16 463.501 897.544 463.501C885.359 463.501 885.359 463.501 885.359 464.05C885.359 464.598 885.359 464.476 897.544 464.567C905.282 464.537 915.548 464.567 926.484 464.567ZM945.981 463.958H907.018H926.484H945.981Z" fill="#E0E0E0"/>
<path d="M896.843 427.585C896.843 427.768 925.327 427.92 960.42 427.92C995.514 427.92 1024 427.92 1024 427.585C1024 427.25 995.545 427.25 960.42 427.25C925.296 427.25 896.843 427.402 896.843 427.585Z" fill="#455A64"/>
<path d="M960.512 428.225C977.51 428.225 993.473 428.225 1005.48 428.225C1018.97 428.225 1022.84 428.225 1023.94 427.981C1024.3 427.981 1024.3 427.829 1024.3 427.707C1024.3 427.585 1024.3 427.524 1023.94 427.463C1022.84 427.311 1018.94 427.28 1005.48 427.219C993.473 427.219 977.51 427.219 960.512 427.219C943.513 427.219 927.581 427.219 915.548 427.219C902.083 427.219 898.214 427.219 897.087 427.463C896.721 427.463 896.721 427.615 896.721 427.707C896.721 427.798 896.721 427.889 897.087 427.981C898.214 427.981 902.083 428.164 915.548 428.225C927.459 428.194 943.452 428.225 960.512 428.225Z" fill="#455A64"/>
<path d="M1120.48 391.242C1120.48 391.425 1127.15 391.577 1135.34 391.577C1143.54 391.577 1150.18 391.425 1150.18 391.242C1150.18 391.059 1143.54 390.907 1135.34 390.907C1127.15 390.907 1120.48 391.059 1120.48 391.242Z" fill="#E0E0E0"/>
<path d="M1135.34 391.851C1150.57 391.851 1150.57 391.577 1150.57 391.242C1150.57 390.907 1150.57 390.602 1135.34 390.602C1120.11 390.602 1120.11 390.907 1120.11 391.242C1120.11 391.577 1120.2 391.851 1135.34 391.851Z" fill="#E0E0E0"/>
<path d="M1120.48 536.644C1120.48 536.827 1127.15 536.979 1135.34 536.979C1143.54 536.979 1150.18 536.827 1150.18 536.644C1150.18 536.461 1143.54 536.309 1135.34 536.309C1127.15 536.309 1120.48 536.461 1120.48 536.644Z" fill="#E0E0E0"/>
<path d="M1135.34 537.284C1150.57 537.284 1150.57 536.979 1150.57 536.644C1150.57 536.309 1150.57 536.035 1135.34 536.035C1120.11 536.035 1120.11 536.309 1120.11 536.644C1120.11 536.979 1120.2 537.284 1135.34 537.284Z" fill="#E0E0E0"/>
<path d="M1105.76 439.709C1105.76 439.892 1112.43 440.044 1120.63 440.044C1128.82 440.044 1135.46 439.892 1135.46 439.709C1135.46 439.527 1128.82 439.374 1120.63 439.374C1112.43 439.374 1105.76 439.527 1105.76 439.709Z" fill="#E0E0E0"/>
<path d="M1120.63 440.319C1135.86 440.319 1135.86 440.044 1135.86 439.709C1135.86 439.374 1135.86 439.1 1120.63 439.1C1105.4 439.1 1105.4 439.374 1105.4 439.709C1105.4 440.044 1105.49 440.319 1120.63 440.319Z" fill="#E0E0E0"/>
<path d="M867.751 439.709C867.751 439.892 874.392 440.044 882.617 440.044C890.842 440.044 897.453 439.892 897.453 439.709C897.453 439.527 890.812 439.374 882.617 439.374C874.422 439.374 867.751 439.527 867.751 439.709Z" fill="#4A669C"/>
<path d="M882.617 440.319C897.849 440.319 897.849 440.044 897.849 439.709C897.849 439.374 897.849 439.1 882.617 439.1C867.385 439.1 867.385 439.374 867.385 439.709C867.385 440.044 867.477 440.319 882.617 440.319Z" fill="#4A669C"/>
<path d="M1079.14 488.116C1079.14 488.298 1091.57 488.451 1106.92 488.451C1122.27 488.451 1134.7 488.451 1134.7 488.116C1134.7 487.781 1122.24 487.781 1106.92 487.781C1091.6 487.781 1079.14 487.933 1079.14 488.116Z" fill="#4A669C"/>
<path d="M1106.92 488.725C1114.32 488.725 1121.3 488.725 1126.57 488.725C1134.98 488.725 1134.98 488.725 1134.98 488.207C1134.98 487.689 1134.98 487.781 1126.57 487.659C1121.33 487.659 1114.38 487.659 1106.92 487.659C1099.46 487.659 1092.51 487.659 1087.27 487.659C1078.83 487.659 1078.83 487.659 1078.83 488.207C1078.83 488.755 1078.83 488.634 1087.27 488.725C1092.51 488.694 1099.49 488.725 1106.92 488.725ZM1120.14 488.116H1093.7H1106.92H1120.14Z" fill="#4A669C"/>
<path d="M1014.89 488.116C1014.89 488.298 1027.32 488.451 1042.67 488.451C1058.03 488.451 1070.45 488.451 1070.45 488.116C1070.45 487.781 1057.99 487.781 1042.67 487.781C1027.35 487.781 1014.89 487.933 1014.89 488.116Z" fill="#E0E0E0"/>
<path d="M1042.76 488.725C1050.17 488.725 1057.14 488.725 1062.41 488.725C1070.82 488.725 1070.82 488.725 1070.82 488.207C1070.82 487.689 1070.82 487.781 1062.41 487.659C1057.14 487.659 1050.23 487.659 1042.76 487.659C1035.3 487.659 1028.35 487.659 1023.11 487.659C1014.68 487.659 1014.68 487.659 1014.68 488.207C1014.68 488.755 1014.68 488.634 1023.11 488.725C1028.26 488.694 1035.24 488.725 1042.76 488.725ZM1055.98 488.116H1029.54H1042.76H1055.98Z" fill="#E0E0E0"/>
<path d="M1039.44 500.24C1039.44 500.423 1057.72 500.545 1080.39 500.545C1103.05 500.545 1121.33 500.545 1121.33 500.24C1121.33 499.935 1103.05 499.905 1080.39 499.905C1057.72 499.905 1039.44 500.057 1039.44 500.24Z" fill="#E0E0E0"/>
<path d="M1080.39 500.849C1091.32 500.849 1101.71 500.849 1109.33 500.849C1121.51 500.849 1121.51 500.849 1121.51 500.332C1121.51 499.814 1121.51 499.905 1109.33 499.783C1101.59 499.783 1091.32 499.783 1080.39 499.783C1069.45 499.783 1059.06 499.783 1051.41 499.783C1039.23 499.783 1039.23 499.783 1039.23 500.332C1039.23 500.88 1039.23 500.758 1051.41 500.849C1059.15 500.819 1069.45 500.849 1080.39 500.849ZM1099.76 500.24H1061.04H1080.42H1099.76Z" fill="#E0E0E0"/>
<path d="M1039.44 512.334C1039.44 512.517 1057.72 512.669 1080.39 512.669C1103.05 512.669 1121.33 512.517 1121.33 512.334C1121.33 512.151 1103.05 511.999 1080.39 511.999C1057.72 511.999 1039.44 512.151 1039.44 512.334Z" fill="#E0E0E0"/>
<path d="M1080.39 512.974C1091.32 512.974 1101.71 512.974 1109.33 512.974C1121.51 512.974 1121.51 512.974 1121.51 512.426C1121.51 511.877 1121.51 511.999 1109.33 511.908C1101.59 511.908 1091.32 511.908 1080.39 511.908C1069.45 511.908 1059.06 511.908 1051.41 511.908C1039.23 511.908 1039.23 511.908 1039.23 512.426C1039.23 512.943 1039.23 512.852 1051.41 512.974C1059.15 512.943 1069.45 512.974 1080.39 512.974ZM1099.88 512.334H1080.39H1060.89H1099.88Z" fill="#E0E0E0"/>
<path d="M1007.4 524.459C1007.4 524.641 1025.67 524.794 1048.34 524.794C1071 524.794 1089.28 524.641 1089.28 524.459C1089.28 524.276 1071 524.124 1048.34 524.124C1025.67 524.124 1007.4 524.276 1007.4 524.459Z" fill="#E0E0E0"/>
<path d="M1048.34 525.098C1059.27 525.098 1069.66 525.098 1077.28 525.098C1089.46 525.098 1089.46 525.098 1089.46 524.58C1089.46 524.062 1089.46 524.154 1077.28 524.062C1069.57 524.062 1059.27 524.062 1048.34 524.062C1037.4 524.062 1027.01 524.062 1019.37 524.062C1007.18 524.062 1007.18 524.062 1007.18 524.58C1007.18 525.098 1007.18 525.007 1019.37 525.098C1027.1 525.037 1037.4 525.098 1048.34 525.098Z" fill="#E0E0E0"/>
<path d="M907.323 524.459C907.323 524.641 925.601 524.794 948.266 524.794C970.93 524.794 989.208 524.641 989.208 524.459C989.208 524.276 970.93 524.124 948.266 524.124C925.601 524.124 907.323 524.276 907.323 524.459Z" fill="#E0E0E0"/>
<path d="M948.327 525.098C959.263 525.098 969.651 525.098 977.267 525.098C989.452 525.098 989.452 525.098 989.452 524.58C989.452 524.062 989.452 524.154 977.267 524.062C969.56 524.062 959.263 524.062 948.327 524.062C937.39 524.062 927.002 524.062 919.386 524.062C907.201 524.062 907.201 524.062 907.201 524.58C907.201 525.098 907.201 525.007 919.386 525.098C927.002 525.037 937.329 525.098 948.327 525.098Z" fill="#E0E0E0"/>
<path d="M942.234 500.24C942.234 500.423 960.512 500.545 983.177 500.545C1005.84 500.545 1024.12 500.545 1024.12 500.24C1024.12 499.935 1005.84 499.905 983.177 499.905C960.512 499.905 942.234 500.057 942.234 500.24Z" fill="#E0E0E0"/>
<path d="M983.055 500.849C993.991 500.849 1004.38 500.849 1012.03 500.849C1024.21 500.849 1024.21 500.849 1024.21 500.332C1024.21 499.814 1024.21 499.905 1012.03 499.783C1004.29 499.783 993.991 499.783 983.055 499.783C972.118 499.783 961.73 499.783 954.115 499.783C941.929 499.783 941.929 499.783 941.929 500.332C941.929 500.88 941.929 500.758 954.115 500.849C961.852 500.819 972.118 500.849 983.055 500.849ZM1002.43 500.24H963.558H982.933H1002.43Z" fill="#E0E0E0"/>
<path d="M896.843 512.334C896.843 512.517 925.327 512.669 960.42 512.669C995.514 512.669 1024 512.517 1024 512.334C1024 512.151 995.545 511.999 960.42 511.999C925.296 511.999 896.843 512.151 896.843 512.334Z" fill="#455A64"/>
<path d="M960.512 512.974C977.51 512.974 993.473 512.974 1005.48 512.974C1018.97 512.974 1022.84 512.974 1023.94 512.7C1024.3 512.7 1024.3 512.547 1024.3 512.425C1024.3 512.304 1024.3 512.243 1023.94 512.182C1022.84 512.182 1018.94 511.999 1005.48 511.938C993.473 511.938 977.51 511.938 960.512 511.938C943.513 511.938 927.581 511.938 915.548 511.938C902.083 511.938 898.214 511.938 897.087 512.182C896.721 512.182 896.721 512.334 896.721 512.425C896.721 512.517 896.721 512.639 897.087 512.7C898.214 512.7 902.083 512.882 915.548 512.974C927.459 512.943 943.452 512.974 960.512 512.974ZM990.518 512.334H960.512H930.505H990.518Z" fill="#455A64"/>
<path d="M1105.76 524.459C1105.76 524.641 1112.43 524.794 1120.63 524.794C1128.82 524.794 1135.46 524.641 1135.46 524.459C1135.46 524.276 1128.82 524.124 1120.63 524.124C1112.43 524.124 1105.76 524.276 1105.76 524.459Z" fill="#E0E0E0"/>
<path d="M1120.63 525.098C1135.86 525.098 1135.86 524.793 1135.86 524.458C1135.86 524.123 1135.86 523.849 1120.63 523.849C1105.4 523.849 1105.4 524.123 1105.4 524.458C1105.4 524.793 1105.49 525.098 1120.63 525.098Z" fill="#E0E0E0"/>
<path d="M867.751 524.459C867.751 524.641 874.392 524.794 882.617 524.794C890.842 524.794 897.453 524.641 897.453 524.459C897.453 524.276 890.812 524.124 882.617 524.124C874.422 524.124 867.751 524.276 867.751 524.459Z" fill="#4A669C"/>
<path d="M882.617 525.098C897.849 525.098 897.849 524.793 897.849 524.458C897.849 524.123 897.849 523.849 882.617 523.849C867.385 523.849 867.385 524.123 867.385 524.458C867.385 524.793 867.477 525.098 882.617 525.098Z" fill="#4A669C"/>
</svg>
